<?xml version="1.0" standalone="no"?>
<!DOCTYPE svg PUBLIC "-//W3C//DTD SVG 20010904//EN"
 "http://www.w3.org/TR/2001/REC-SVG-20010904/DTD/svg10.dtd">
<svg version="1.0" xmlns="http://www.w3.org/2000/svg"
 width="500.000000pt" height="500.000000pt" viewBox="0 0 500.000000 500.000000"
 preserveAspectRatio="xMidYMid meet">
<metadata>
Created by potrace 1.11, written by Peter Selinger 2001-2013
</metadata>
<g transform="translate(0.000000,500.000000) scale(0.100000,-0.100000)"
fill="#000000" stroke="none">
<path d="M2271 4936 c-7 -9 -19 -16 -26 -16 -21 0 -65 -40 -65 -59 0 -10 11
-23 25 -29 14 -6 25 -20 25 -29 0 -14 -2 -15 -9 -4 -11 17 -52 -86 -58 -149
-5 -46 14 -89 61 -142 20 -23 64 -23 88 -1 17 15 18 14 18 -28 -1 -98 -18
-183 -39 -198 -12 -7 -21 -20 -21 -27 0 -10 -13 -14 -45 -14 -53 0 -68 -18
-51 -61 6 -16 14 -29 19 -29 4 0 5 -4 2 -10 -3 -5 -11 -10 -16 -10 -6 0 -7 5
-3 12 5 8 2 9 -12 3 -79 -33 -101 -8 -55 63 36 57 39 78 11 85 -18 5 -19 9 -9
34 27 72 -23 165 -97 179 -20 4 -44 15 -54 26 -23 25 -40 16 -40 -23 0 -16 -3
-29 -7 -29 -11 0 -42 -57 -35 -64 3 -3 20 -6 39 -6 23 0 33 -5 33 -15 0 -8 9
-15 20 -15 24 0 25 -8 2 -38 -16 -21 -20 -22 -31 -8 -24 28 -47 20 -48 -16 0
-18 -3 -53 -7 -78 -7 -39 -4 -50 18 -82 53 -78 -15 -24 -111 89 -71 83 -139
117 -220 110 -87 -8 -124 -16 -164 -38 -21 -10 -44 -16 -53 -13 -9 3 -16 1
-16 -4 0 -14 49 -52 66 -52 9 0 4 -16 -17 -50 -30 -49 -49 -63 -49 -37 0 7 5
18 11 24 13 13 4 33 -16 33 -7 0 -23 14 -35 30 -29 41 -56 39 -64 -5 -5 -23
-15 -38 -33 -47 -38 -18 -39 -34 -4 -53 17 -8 31 -20 31 -25 0 -6 15 -19 33
-30 44 -27 119 -27 158 1 24 17 32 19 45 8 9 -7 18 -8 23 -3 19 20 51 90 51
111 0 12 12 35 26 50 l26 28 -16 -28 c-24 -40 -18 -91 12 -95 12 -2 22 -9 22
-15 0 -7 7 -22 15 -34 18 -25 45 -20 45 8 0 12 5 16 14 13 8 -3 17 0 21 6 4 6
29 -10 65 -44 33 -30 84 -66 115 -80 30 -15 55 -29 55 -32 0 -2 -9 0 -19 6
-23 12 -81 2 -81 -14 0 -7 5 -17 12 -24 9 -9 8 -12 -4 -12 -38 0 -49 11 -42
46 6 32 5 34 -22 34 -26 0 -26 1 -9 13 22 17 12 37 -20 37 -28 0 -65 -43 -65
-77 0 -33 23 -84 48 -106 11 -10 39 -26 63 -35 25 -10 44 -24 44 -32 0 -11 9
-14 36 -12 21 2 56 -2 80 -8 44 -12 44 -12 22 -30 -16 -13 -19 -20 -10 -29 8
-8 7 -11 -5 -11 -17 0 -28 20 -28 51 0 25 -22 24 -45 -1 -10 -11 -31 -20 -47
-20 -34 0 -34 -2 -3 -55 17 -30 36 -47 65 -59 45 -18 116 -21 154 -6 21 7 26
6 26 -5 0 -18 37 -20 92 -3 44 13 133 87 143 118 9 27 20 25 34 -6 10 -22 9
-31 -6 -51 -57 -80 -65 -107 -41 -131 9 -9 -7 -12 -74 -12 -64 0 -89 4 -98 15
-9 11 -34 15 -99 15 -83 0 -87 -1 -130 -35 -24 -19 -47 -35 -51 -35 -7 0 -22
26 -24 43 -1 4 -4 7 -8 7 -5 0 -13 0 -18 0 -6 0 -18 -16 -27 -35 -13 -27 -19
-32 -30 -24 -7 6 -13 17 -13 24 0 15 -113 135 -128 135 -7 0 -12 7 -12 15 0
18 20 19 71 3 43 -12 64 -3 37 16 -14 11 -11 14 28 24 52 14 58 32 11 32 -39
0 -77 23 -58 34 6 4 18 3 25 -3 15 -13 36 4 36 30 0 21 -12 31 -86 71 -51 27
-69 31 -126 30 -52 -1 -68 2 -68 13 0 23 20 28 39 11 10 -9 21 -16 26 -16 10
0 -47 59 -57 60 -3 0 -11 -13 -17 -30 -10 -30 -25 -38 -36 -20 -11 18 -26 10
-20 -10 5 -16 2 -20 -19 -20 -29 0 -76 -19 -76 -32 0 -4 4 -8 8 -8 5 0 15 -11
22 -25 7 -14 19 -25 25 -25 19 0 48 -37 35 -45 -6 -4 -17 -1 -25 5 -11 9 -21
9 -43 -3 -24 -12 -32 -12 -47 0 -75 54 -168 -66 -221 -284 -15 -59 -28 -139
-29 -178 -1 -38 -7 -113 -13 -165 -20 -173 -26 -360 -13 -360 7 0 18 13 24 30
6 16 17 31 25 32 11 3 48 77 70 143 4 11 14 20 22 20 9 0 18 18 26 51 6 28 15
57 19 64 5 7 12 27 16 44 6 20 7 5 4 -44 -3 -41 -16 -118 -30 -170 -27 -106
-29 -120 -15 -120 18 0 43 49 32 63 -7 8 -5 39 8 102 11 50 19 106 20 126 0
49 8 53 40 17 18 -19 34 -28 44 -25 17 7 32 -25 27 -58 -1 -14 5 -9 20 15 l22
35 9 -24 c5 -16 5 -28 -2 -35 -8 -8 -9 -5 -5 9 5 15 1 12 -15 -8 l-23 -28 -19
32 c-10 17 -21 29 -24 26 -3 -3 2 -18 12 -34 10 -16 12 -23 4 -15 -19 16 -30
15 -30 -4 0 -8 5 -12 10 -9 12 7 13 -6 3 -31 -6 -16 -7 -16 -14 2 -7 17 -8 17
-8 1 -1 -11 -6 -15 -13 -11 -7 4 -8 3 -4 -4 6 -11 -22 -67 -30 -59 -2 2 5 30
16 62 23 66 26 110 8 121 -8 5 -9 2 -5 -10 8 -21 -13 -117 -25 -110 -5 3 -6
-7 -2 -22 5 -19 4 -25 -5 -20 -7 5 -11 -2 -11 -18 0 -35 26 -34 48 2 16 26 58
66 107 102 20 15 20 15 0 -8 -10 -13 -28 -38 -40 -57 -11 -18 -35 -54 -53 -79
-17 -24 -39 -73 -48 -107 -20 -76 -7 -126 40 -166 21 -18 27 -28 18 -31 -8 -2
-22 -25 -33 -51 -11 -25 -28 -52 -37 -59 -14 -10 -14 -14 -3 -21 19 -12 23
-111 5 -111 -21 0 -17 -54 5 -74 10 -9 35 -20 55 -23 21 -3 36 -11 36 -19 0
-8 11 -14 25 -14 21 0 25 -5 25 -30 l0 -30 39 19 c22 12 47 17 60 14 15 -4 30
2 47 18 l25 23 72 -72 c39 -39 89 -78 110 -87 20 -8 37 -21 37 -28 0 -19 47
-65 89 -86 21 -11 62 -23 91 -27 29 -4 61 -15 71 -25 34 -34 80 2 64 50 -6 19
-58 45 -69 34 -3 -4 -6 -1 -6 6 0 22 26 22 81 -2 81 -36 206 -74 272 -82 62
-8 71 -19 32 -37 -22 -10 -28 -8 -47 11 -17 19 -28 22 -57 17 -63 -10 -80 -58
-35 -103 23 -23 31 -25 87 -21 34 3 70 9 80 13 15 6 18 3 15 -21 -3 -24 1 -30
22 -32 14 -2 29 -10 33 -18 18 -31 44 -35 74 -10 15 13 37 25 48 27 13 3 21
14 23 32 3 23 7 27 20 21 9 -4 41 -10 69 -12 48 -3 55 -1 83 26 46 46 38 75
-25 96 l-38 13 39 8 c60 11 152 44 229 83 62 31 73 33 100 23 42 -15 55 -14
49 4 -4 8 -1 15 5 15 6 0 11 6 11 14 0 21 17 28 38 17 24 -13 47 3 61 42 14
36 31 34 31 -3 0 -83 -92 -164 -200 -177 -29 -3 -56 -13 -66 -24 -19 -21 -44
-14 -44 12 0 12 14 28 35 41 20 11 34 23 31 25 -8 8 -73 -35 -80 -52 -16 -42
37 -71 65 -36 10 13 29 21 46 21 71 0 192 69 208 119 3 10 23 23 44 30 29 8
50 25 80 66 50 66 92 92 111 69 7 -8 18 -13 24 -11 6 3 18 -1 26 -9 8 -7 27
-16 43 -19 23 -6 27 -4 27 14 0 18 4 20 26 15 20 -5 26 -2 30 14 4 15 17 21
50 25 49 5 84 30 84 58 0 20 -29 53 -39 44 -3 -4 2 -11 12 -16 24 -14 21 -34
-10 -59 -19 -15 -38 -20 -63 -18 -30 3 -35 0 -38 -19 -4 -26 -3 -26 -36 -13
-24 9 -26 7 -26 -15 0 -32 -11 -31 -49 1 -18 14 -31 20 -31 13 0 -25 -38 23
-44 56 -4 18 -12 35 -18 37 -7 3 -9 12 -5 22 6 15 14 17 43 13 42 -7 72 -30
76 -60 4 -28 25 -33 33 -7 l7 22 15 -21 c14 -21 50 -31 38 -11 -3 5 -2 10 4
10 5 0 13 -4 16 -10 11 -18 33 -11 40 13 3 12 10 31 16 42 35 75 24 200 -22
253 -16 18 -29 35 -29 38 0 3 18 29 40 58 68 90 65 125 -24 229 -54 64 -102
144 -92 154 5 6 47 -36 79 -78 44 -60 48 -64 53 -52 4 10 10 10 24 1 11 -7 21
-10 23 -8 3 3 -1 41 -8 85 -7 44 -15 109 -19 145 l-6 65 19 -55 c10 -30 22
-74 26 -97 4 -29 12 -43 26 -46 13 -4 19 -14 19 -34 0 -32 15 -61 26 -50 4 4
15 -11 25 -34 10 -22 23 -38 28 -35 5 4 12 2 16 -4 25 -40 33 47 15 170 -5 36
-11 128 -14 205 -8 192 -26 289 -78 425 -40 102 -78 150 -119 150 -15 0 -30
-4 -33 -9 -3 -4 -16 -6 -30 -4 -27 6 -57 -28 -55 -62 1 -14 4 -10 11 13 6 17
14 32 18 32 4 0 0 -20 -9 -45 -12 -33 -17 -40 -22 -27 -5 14 -7 14 -11 2 -3
-8 -3 -5 -1 7 2 13 -3 39 -11 58 -14 34 -14 36 9 51 24 15 65 76 65 95 0 5
-17 7 -40 3 -34 -6 -40 -4 -40 11 0 13 -6 16 -25 11 -22 -6 -25 -3 -25 20 0
14 -3 24 -7 22 -5 -3 -27 -13 -50 -23 -24 -10 -43 -22 -43 -27 0 -4 -17 -8
-37 -8 -52 -1 -155 -57 -167 -91 -5 -15 -6 -35 -2 -44 6 -16 8 -17 24 -1 20
17 42 21 42 8 0 -11 -46 -32 -70 -32 -11 0 -20 -4 -20 -10 0 -14 44 -23 72
-15 18 5 20 4 8 -4 -8 -6 -24 -11 -35 -11 -19 -1 -19 -1 -1 -12 11 -6 42 -8
78 -4 49 5 60 3 65 -11 4 -9 0 -21 -10 -27 -8 -6 -24 -17 -34 -23 -16 -11 -14
-12 16 -10 35 2 43 14 42 65 0 12 4 22 9 22 20 0 9 38 -20 75 -16 21 -30 43
-30 49 0 6 -3 22 -7 35 -6 23 -6 23 16 5 11 -10 21 -24 21 -31 0 -18 45 -16
64 3 9 8 22 12 28 9 7 -4 4 1 -6 9 -11 9 -26 16 -33 16 -7 0 -13 4 -13 8 0 4
15 8 33 8 17 -1 46 3 63 6 29 6 31 5 27 -13 -3 -11 -14 -25 -23 -32 -16 -9
-16 -12 -4 -25 13 -12 18 -12 42 4 43 28 54 41 39 47 -6 3 -2 6 10 6 16 1 21
-3 17 -14 -4 -8 -11 -15 -17 -15 -6 0 -8 -3 -4 -6 15 -15 -53 -57 -77 -48 -9
3 -16 1 -16 -5 0 -6 5 -11 11 -11 5 0 7 -5 3 -12 -5 -8 -2 -9 11 -4 11 4 22 2
27 -6 11 -19 10 -60 -2 -53 -13 8 -13 -8 -1 -20 6 -6 5 -33 -1 -67 -7 -42 -13
-55 -24 -51 -10 3 -14 -2 -14 -18 0 -13 -12 -44 -25 -68 -14 -24 -27 -52 -28
-61 -2 -9 -19 -31 -39 -49 -20 -18 -42 -48 -48 -67 -8 -22 -17 -34 -25 -30 -7
2 -21 -4 -31 -15 -10 -11 -25 -17 -35 -14 -10 3 -21 0 -26 -8 -11 -18 -104
-89 -110 -83 -3 2 0 14 7 25 9 17 8 21 -5 21 -8 0 -15 9 -15 20 0 15 -7 20
-25 20 -22 0 -24 3 -15 19 14 26 13 27 -12 26 -40 0 -34 20 7 27 66 10 128 38
157 69 15 16 34 29 42 29 8 0 18 5 21 10 14 22 -51 -3 -80 -31 -40 -37 -67
-39 -61 -4 12 63 19 70 74 68 14 -1 17 14 3 19 -15 5 8 50 28 55 12 3 19 13
18 24 -1 12 -7 17 -15 14 -7 -2 -10 0 -7 5 3 5 22 12 42 16 35 7 36 8 14 16
-19 7 -32 2 -68 -28 -25 -20 -48 -46 -53 -58 l-9 -21 0 22 c-1 22 -35 53 -59
53 -9 0 -10 -5 -3 -19 9 -15 7 -20 -12 -25 -16 -4 -30 3 -52 24 -29 28 -36 30
-107 30 -64 0 -81 -4 -112 -25 -54 -37 -64 -33 -59 19 3 23 0 52 -6 64 -11 20
-9 20 31 -3 46 -27 74 -31 80 -14 2 7 12 7 31 0 40 -15 119 -13 141 4 23 17
58 93 50 107 -3 5 -17 7 -30 4 -17 -5 -26 -1 -34 14 -15 28 -38 25 -46 -5 -9
-35 -29 -31 -30 5 -1 37 -18 57 -62 76 -27 11 -33 17 -24 26 8 8 23 1 56 -30
27 -25 55 -42 68 -41 22 0 22 1 3 9 -16 7 -17 9 -3 9 9 1 24 -2 33 -5 13 -6
14 -9 3 -16 -9 -6 -3 -8 17 -6 26 3 30 8 33 36 3 24 8 32 23 32 31 0 91 29
122 57 38 37 39 102 1 132 -26 21 -67 27 -98 15 -25 -10 -19 -24 12 -25 15 0
20 -3 12 -6 -8 -2 -21 -7 -29 -9 -11 -4 -12 -7 -3 -16 7 -7 12 -25 12 -40 0
-25 -4 -28 -31 -28 -17 0 -28 4 -24 10 3 6 -1 7 -9 4 -23 -9 -20 -24 4 -24 26
0 26 -25 -1 -43 -18 -13 -19 -18 -9 -37 15 -29 8 -34 -32 -22 -18 6 -45 13
-59 16 -14 3 -36 15 -49 26 -28 24 -58 26 -67 4 -4 -10 11 -31 45 -63 51 -48
55 -61 20 -61 -19 0 -25 -25 -8 -35 23 -14 -4 -25 -61 -25 -54 0 -64 3 -90 29
-21 21 -29 39 -29 64 0 46 8 50 37 19 14 -15 20 -19 13 -9 -17 23 -5 35 20 20
17 -11 18 -11 5 14 -9 17 -11 31 -5 38 6 7 5 16 -2 23 -9 9 -9 12 0 12 13 0
-14 44 -56 91 -20 23 -21 27 -7 39 21 18 19 34 -10 61 -32 31 -33 51 -1 43 29
-7 43 11 19 25 -33 19 -4 11 34 -9 52 -27 99 -27 106 2 7 26 -7 54 -33 68 -27
15 -25 34 10 86 31 43 65 62 96 50 22 -9 12 -30 -17 -34 -36 -4 -69 -24 -81
-47 -10 -19 -10 -19 10 1 41 43 128 39 153 -8 12 -22 12 -22 21 -3 6 14 7 8 4
-19 -3 -21 -12 -46 -21 -56 -8 -9 -15 -25 -15 -34 0 -14 5 -17 23 -11 37 12
70 8 85 -12 12 -16 9 -22 -31 -59 -25 -22 -64 -46 -88 -53 -75 -21 -99 -33
-99 -48 0 -12 -8 -14 -39 -9 -22 3 -48 8 -58 11 -10 3 -4 -1 12 -9 39 -20 97
-20 142 -1 42 18 86 19 115 4 25 -13 44 7 26 28 -15 19 -66 16 -117 -7 -45
-21 -72 -26 -55 -12 5 5 36 17 69 28 49 15 72 31 129 87 50 51 71 66 77 56 6
-10 12 -9 29 6 22 20 22 20 41 -4 16 -19 22 -21 34 -11 8 7 15 23 15 36 0 18
6 24 21 24 18 0 20 5 17 28 -3 15 -9 36 -13 46 -6 13 -5 17 3 12 6 -4 21 -33
33 -66 25 -68 86 -133 112 -118 9 5 35 4 60 -1 58 -14 112 1 134 37 9 15 26
34 37 44 17 14 18 19 7 32 -7 9 -19 16 -26 16 -8 0 -16 14 -20 30 -8 36 -28
38 -55 8 -69 -78 -72 -79 -92 -39 -18 34 -18 37 -2 46 25 15 54 44 54 54 0 14
-189 34 -272 29 -115 -7 -206 -66 -261 -168 -10 -18 -20 -30 -23 -27 -3 3 1
16 10 29 11 16 15 44 13 92 l-2 68 -37 -5 c-21 -3 -38 -1 -38 4 0 5 -11 16
-25 25 -34 22 -71 11 -95 -29 -23 -37 -27 -20 -5 22 19 37 35 42 101 35 45 -6
54 -4 49 8 -4 9 4 19 20 26 22 10 24 15 15 33 -6 11 -18 23 -26 26 -8 3 -14
16 -14 28 0 27 -15 41 -25 25 -4 -6 -30 -21 -59 -34 -29 -13 -63 -36 -75 -52
-20 -26 -23 -37 -18 -96 4 -62 3 -68 -15 -68 -29 0 -13 -49 28 -85 57 -50 39
-88 -31 -65 -32 11 -36 15 -31 38 8 39 -5 53 -59 63 -27 5 -51 11 -53 14 -3 3
-4 34 -3 69 1 43 -3 75 -13 95 -9 17 -15 45 -15 63 1 19 3 25 6 13 10 -49 35
-104 50 -109 24 -10 28 2 14 37 -7 18 -17 55 -21 83 -10 68 -32 113 -75 153
-29 27 -35 40 -35 72 0 57 -33 85 -110 94 -62 7 -69 12 -48 33 9 9 9 12 -3 12
-9 0 -22 -11 -29 -25 -8 -14 -25 -31 -39 -38 -15 -7 -31 -26 -36 -45 -6 -17
-20 -39 -30 -47 -20 -15 -20 -15 0 -8 18 6 19 5 6 -11 -14 -16 -15 -16 -24 0
-7 12 -4 34 7 71 10 30 16 71 15 91 -2 21 1 43 5 51 12 19 -6 32 -51 38 -28 4
-42 1 -52 -11z m45 -8 c-5 -37 -62 -70 -78 -46 -6 10 -8 9 -8 -3 0 -9 -7 -20
-16 -23 -25 -9 -25 -7 -5 13 10 10 20 22 22 27 5 11 59 42 76 43 6 1 10 -5 9
-11z m36 -25 c-10 -4 -10 -8 -1 -19 12 -15 9 -43 -14 -129 -18 -64 -12 -88 20
-82 26 5 26 -1 -3 -72 -8 -19 -13 -36 -10 -38 5 -5 46 93 46 112 0 9 6 26 12
38 12 21 13 20 18 -13 4 -28 12 -39 43 -54 37 -18 38 -19 31 -60 -9 -55 -21
-86 -34 -86 -5 0 -10 12 -10 28 0 15 -5 34 -11 42 -8 12 -9 9 -5 -12 9 -40 -5
-143 -16 -126 -7 9 -8 8 -4 -6 3 -10 2 -35 -3 -55 -6 -20 -12 -56 -14 -81 -3
-32 -9 -46 -20 -48 -18 -4 -18 -6 5 115 9 49 9 76 -1 125 -7 35 -9 72 -5 83 5
14 4 17 -4 10 -6 -5 -12 -20 -14 -33 l-3 -22 -32 22 c-18 13 -33 29 -33 36 0
6 -4 12 -9 12 -5 0 -14 12 -20 28 -10 26 -11 26 -5 -7 4 -23 2 -36 -7 -42 -10
-6 -6 -9 12 -9 14 0 34 -9 43 -19 17 -19 17 -20 -3 -30 -30 -16 -56 -13 -76 9
-15 16 -15 22 -5 35 10 12 10 15 -4 15 -22 0 -21 51 5 164 22 96 32 117 49
100 6 -6 5 -25 -4 -54 -7 -25 -16 -65 -20 -90 -5 -43 6 -9 43 125 17 64 54
114 71 97 3 -2 -1 -7 -8 -9z m-61 -47 c-7 -8 -21 -12 -34 -8 -21 5 -20 6 8 18
34 14 43 11 26 -10z m159 -60 c0 -3 -4 -8 -10 -11 -5 -3 -10 -1 -10 4 0 6 5
11 10 11 6 0 10 -2 10 -4z m50 -26 c0 -41 20 -38 21 3 0 17 3 26 6 18 4 -10 7
-11 13 -1 5 8 10 2 15 -19 8 -39 25 -41 25 -2 0 25 3 28 21 24 14 -4 17 -8 8
-13 -13 -9 -5 -40 11 -40 5 0 10 8 10 18 0 14 2 15 10 2 17 -26 11 -30 -40
-30 -45 0 -50 2 -51 23 l-2 22 -4 -22 c-3 -16 -11 -23 -29 -23 -13 0 -24 6
-24 13 0 6 -3 22 -6 35 -4 13 -2 22 5 22 6 0 11 -13 11 -30z m-294 -59 c-9
-38 -16 -84 -16 -101 0 -18 -4 -29 -10 -25 -17 10 -11 77 12 142 12 35 23 61
26 59 2 -3 -3 -36 -12 -75z m250 -28 l-15 -28 -1 43 c0 24 6 53 13 65 11 21
12 20 15 -15 2 -20 -4 -50 -12 -65z m-39 65 c-3 -8 -6 -5 -6 6 -1 11 2 17 5
13 3 -3 4 -12 1 -19z m112 -50 c-1 -16 -3 -18 -6 -6 -2 9 -12 19 -21 21 -12 3
-10 5 6 6 17 1 22 -4 21 -21z m71 4 c0 -10 -6 -27 -14 -38 -14 -18 -15 -17
-11 14 5 37 -21 47 -28 10 -4 -20 -4 -19 -6 5 -1 24 3 27 29 27 22 0 30 -5 30
-18z m135 -113 c8 -14 17 -50 21 -80 4 -30 13 -67 21 -82 8 -16 12 -31 9 -34
-9 -10 -35 56 -45 115 -10 62 -32 115 -53 128 -6 4 -2 -9 11 -29 20 -33 22
-45 16 -102 -6 -53 -4 -70 10 -92 14 -21 16 -40 13 -95 -6 -76 -9 -83 -35 -74
-11 5 -13 10 -7 14 6 4 14 34 17 66 l6 60 -49 48 c-42 41 -65 85 -59 114 1 5
0 16 -1 24 -2 8 -6 -3 -9 -25 -6 -32 -3 -46 16 -72 24 -34 23 -82 -2 -113 -21
-25 -55 -90 -55 -105 0 -8 -9 -15 -20 -15 -21 0 -27 15 -10 25 6 4 23 32 39
63 24 47 26 59 15 69 -21 20 -29 83 -13 94 11 7 11 9 -3 9 -15 0 -15 4 -2 47
8 25 14 57 14 70 0 16 6 23 20 23 11 0 28 9 37 20 17 20 18 19 51 -13 19 -17
40 -44 47 -58z m-179 -6 c-3 -24 -10 -53 -16 -63 -13 -25 -55 -28 -46 -4 3 9
9 34 12 57 8 50 20 68 41 60 12 -5 14 -16 9 -50z m-603 -67 c3 -8 23 -18 44
-22 38 -6 89 -32 80 -40 -2 -2 -18 3 -36 12 -18 9 -35 14 -38 11 -3 -4 6 -9
20 -12 15 -4 31 -13 38 -21 10 -12 6 -13 -22 -9 -33 6 -33 5 6 -9 22 -9 41
-16 42 -16 1 0 0 8 -3 18 -5 14 -4 15 5 2 15 -21 14 -43 -1 -33 -7 4 -39 6
-70 5 -44 -3 -58 0 -58 11 0 9 -9 12 -30 9 -23 -3 -30 0 -30 12 0 9 7 19 15
22 9 4 15 19 15 40 0 35 13 46 23 20z m1123 -9 c-4 -17 0 -25 16 -32 27 -12
39 -41 14 -32 -11 5 -15 3 -10 -5 5 -7 0 -9 -14 -6 -25 7 -28 -2 -9 -21 10
-10 1 -11 -45 -6 -52 7 -59 5 -82 -18 -26 -26 -26 -26 -26 -4 1 24 35 54 78
68 24 8 23 8 -8 4 -33 -5 -34 -5 -15 13 16 14 81 52 104 61 2 0 1 -9 -3 -22z
m-704 -47 c1 -14 -5 -58 -15 -99 -10 -40 -15 -81 -12 -91 3 -10 0 -22 -6 -26
-9 -5 -10 -2 -6 12 7 18 6 18 -7 1 -9 -12 -16 -14 -21 -7 -3 5 -11 7 -17 4 -7
-4 -8 -2 -4 5 4 6 11 9 16 6 12 -8 27 54 36 145 3 41 9 79 11 83 8 13 21 -5
25 -33z m162 24 c9 -3 16 -14 16 -23 1 -9 7 -34 15 -55 13 -37 12 -42 -12 -83
-16 -28 -32 -43 -45 -43 -11 0 -22 -8 -25 -19 -4 -18 -56 -35 -68 -23 -10 11
-4 91 10 138 8 27 15 61 15 76 0 24 4 27 38 31 20 2 38 4 39 5 1 1 8 -1 17 -4z
m166 -146 c0 -47 -3 -58 -16 -58 -9 0 -18 -9 -21 -19 -4 -14 -16 -20 -48 -23
-38 -3 -43 -1 -43 19 0 13 7 28 14 34 8 6 14 17 14 24 0 6 9 20 20 30 11 10
20 26 20 36 0 9 3 24 6 33 5 14 9 14 30 -2 20 -14 23 -26 24 -74z m-615 38
c17 -12 17 -17 6 -59 -10 -33 -10 -50 -2 -64 10 -17 10 -16 11 5 0 12 5 22 10
22 15 0 12 -11 -16 -63 -14 -27 -24 -58 -22 -70 3 -19 9 -22 50 -21 26 0 45
-3 42 -8 -9 -14 10 -9 44 12 39 24 49 25 32 5 -10 -12 -7 -14 18 -10 30 3 30
3 20 -26 -6 -17 -23 -40 -39 -51 -16 -12 -29 -31 -29 -42 0 -27 -15 -49 -34
-52 -30 -4 -147 -46 -143 -51 7 -6 86 16 122 35 24 12 28 12 19 1 -7 -8 -8
-23 -4 -34 5 -15 0 -26 -19 -43 l-26 -23 24 -18 25 -19 -35 -21 c-34 -21 -25
-30 12 -11 28 15 23 -1 -8 -28 -26 -22 -25 -21 20 3 33 19 45 22 41 12 -3 -10
2 -18 15 -22 35 -11 23 -36 -33 -66 -26 -14 -42 -17 -55 -10 -10 6 -29 7 -42
4 -22 -6 -23 -5 -9 12 14 17 13 18 -2 12 -22 -8 -39 13 -32 40 5 17 2 20 -19
16 -32 -6 -44 13 -23 36 16 17 14 19 -31 31 -26 7 -53 12 -60 11 -6 -1 -14 3
-18 9 -4 6 1 7 11 3 12 -4 15 -3 10 6 -5 7 -17 10 -27 8 -11 -3 -34 -1 -52 4
-28 7 -33 13 -34 41 -1 19 1 24 4 13 6 -24 22 -45 34 -45 5 0 5 10 0 23 -11
30 -4 47 21 47 14 0 18 5 14 15 -3 8 0 15 7 16 7 0 3 5 -8 10 -14 7 -5 8 32 5
72 -7 82 21 13 37 -42 10 -119 65 -140 99 -25 41 -25 43 0 68 l20 20 -25 0
c-13 0 -29 -8 -34 -17 -6 -10 -11 -13 -11 -7 0 16 22 34 43 34 10 0 42 -21 71
-46 55 -50 92 -71 103 -60 4 4 2 15 -5 24 -38 53 -52 80 -52 101 0 13 3 22 6
19 5 -6 44 27 44 37 0 3 -8 5 -17 5 -14 0 -15 2 -4 13 10 10 14 8 22 -6 10
-16 14 -13 39 26 40 64 70 79 105 53z m292 -8 c-3 -8 -6 -5 -6 6 -1 11 2 17 5
13 3 -3 4 -12 1 -19z m-724 -34 c26 -9 69 -35 95 -59 43 -40 45 -43 19 -38
-33 6 -59 -13 -55 -41 5 -44 -26 -62 -42 -23 -8 21 -9 20 -10 -8 0 -16 -4 -37
-10 -45 -7 -11 -11 -9 -19 13 -6 16 -11 35 -11 43 0 17 -12 18 -28 2 -9 -9
-13 -7 -18 6 -8 22 14 73 40 91 20 15 20 15 -5 15 -39 0 -75 -34 -82 -75 -7
-42 -45 -108 -58 -99 -13 8 -11 48 2 61 9 9 7 12 -7 11 -10 -1 -30 -16 -43
-32 l-25 -31 27 24 c26 24 38 14 19 -16 -11 -17 -82 -14 -82 4 0 10 6 13 16 9
8 -3 13 -2 9 3 -5 10 27 72 53 104 14 16 12 17 -21 17 -51 0 -52 13 -4 37 85
43 167 52 240 27z m707 -31 c-11 -17 -11 -17 -6 0 3 10 7 26 7 35 1 15 2 15 6
0 2 -10 -1 -25 -7 -35z m1150 27 c-11 -7 -1 -8 35 -5 36 4 44 3 30 -4 -17 -8
-14 -10 16 -10 42 -1 50 -28 12 -37 -22 -6 -23 -8 -9 -23 9 -9 22 -37 31 -61
9 -24 21 -47 28 -52 22 -13 -4 -22 -33 -11 -25 9 -32 9 -39 -5 -8 -14 -13 -13
-45 12 -26 19 -39 40 -47 71 -12 48 -59 98 -96 103 -32 4 -29 -10 7 -36 37
-27 44 -78 10 -69 -17 4 -20 2 -15 -14 4 -10 2 -25 -2 -34 -7 -12 -13 -11 -35
10 -33 30 -34 31 -42 3 l-6 -23 -20 25 c-11 14 -24 30 -30 37 -7 8 -19 9 -42
2 -18 -5 -34 -9 -36 -9 -2 0 3 9 11 21 24 33 96 82 148 98 56 19 193 28 169
11z m-405 -20 c4 -6 11 -8 16 -5 5 4 9 -2 9 -11 0 -16 -2 -15 -22 2 -13 10
-25 20 -27 21 -2 2 1 3 7 3 6 0 14 -5 17 -10z m547 -12 c-7 -7 -12 -8 -12 -2
0 6 3 14 7 17 3 4 9 5 12 2 2 -3 -1 -11 -7 -17z m-745 -50 c-3 -8 -6 -5 -6 6
-1 11 2 17 5 13 3 -3 4 -12 1 -19z m-1619 -13 c11 -14 27 -25 36 -25 19 0 20
-4 4 -29 -9 -15 -8 -24 7 -48 11 -15 18 -32 17 -37 -2 -5 9 -6 23 -3 15 2 23
1 18 -4 -5 -5 -32 -6 -60 -3 -39 5 -61 15 -90 40 -21 19 -41 34 -45 34 -18 0
-6 19 14 22 17 2 25 13 31 41 11 44 19 46 45 12z m1523 -7 c28 2 55 -20 44
-38 -9 -15 -26 -12 -48 8 -19 16 -20 16 -14 0 8 -22 -6 -23 -41 -2 -19 11 -22
12 -9 1 22 -19 22 -27 -3 -27 -12 0 -32 11 -45 24 -14 14 -27 21 -30 16 -3 -4
2 -10 10 -14 27 -10 16 -21 -22 -23 -23 -1 -45 4 -55 14 -16 14 -18 14 -23 0
-10 -24 -85 6 -85 34 0 15 105 -4 135 -24 l30 -21 -24 27 -24 26 57 -2 c31 -2
62 1 69 5 7 4 21 5 32 1 11 -4 32 -6 46 -5z m959 -15 c0 -9 6 -13 15 -10 25
10 24 -7 -2 -38 -24 -29 -24 -29 -18 -5 l7 25 -24 -27 c-22 -25 -58 -48 -75
-48 -4 0 0 5 10 11 9 5 17 19 17 29 0 10 -8 24 -17 29 -16 10 -16 11 5 17 12
3 22 11 22 18 0 6 4 5 9 -3 7 -11 11 -9 20 8 13 23 31 20 31 -6z m-1499 4 c1
-7 0 -16 -1 -22 -1 -5 2 -7 6 -3 4 4 13 3 21 -3 18 -16 16 1 -3 22 -15 17 -14
18 27 17 46 -1 64 -10 79 -39 9 -16 4 -17 -46 -17 -30 1 -57 5 -60 9 -2 4 -13
6 -24 4 -12 -2 -18 0 -16 4 3 4 -1 8 -8 8 -8 0 -12 -6 -9 -14 3 -7 -2 -13 -11
-13 -9 0 -16 5 -16 11 0 5 -4 8 -9 4 -13 -7 -24 12 -18 29 7 17 87 20 88 3z
m162 -4 c19 -17 20 -17 14 0 -9 24 12 22 40 -5 28 -26 30 -43 4 -26 -15 9 -23
9 -34 0 -11 -10 -20 -8 -41 9 -14 11 -26 25 -26 30 0 15 22 10 43 -8z m1252
-54 c12 -19 -5 -23 -22 -6 -16 16 -16 17 -1 17 9 0 20 -5 23 -11z m-1304 -25
c-17 -14 -31 -31 -31 -37 0 -6 12 0 28 14 l27 24 -25 -30 c-14 -16 -28 -34
-33 -40 -4 -5 -5 -1 -1 9 12 32 -12 10 -26 -24 -9 -23 -19 -30 -39 -30 l-26 1
34 30 c21 19 30 34 23 38 -6 4 2 12 19 20 18 8 28 19 25 26 -6 18 3 25 31 25
24 0 24 0 -6 -26z m266 6 c17 -10 37 -29 44 -42 7 -12 18 -29 26 -36 8 -8 12
-34 12 -65 -2 -49 -2 -50 -9 -17 l-7 35 -2 -44 c-1 -41 0 -43 24 -39 17 4 25
1 25 -8 0 -16 -5 -17 -49 -8 -26 6 -31 11 -31 35 0 23 -7 31 -36 44 -31 13
-38 13 -57 0 -34 -22 -95 -28 -176 -17 -85 12 -95 19 -82 53 10 24 10 24 11
-6 1 -30 1 -29 24 15 44 83 101 119 191 120 42 0 69 -6 92 -20z m98 -11 c14
-22 -3 -18 -26 7 -23 25 -23 26 -2 15 12 -6 25 -16 28 -22z m478 24 c-7 -2
-19 -2 -25 0 -7 3 -2 5 12 5 14 0 19 -2 13 -5z m527 -33 c0 -5 -5 -10 -11 -10
-5 0 -7 5 -4 10 3 6 8 10 11 10 2 0 4 -4 4 -10z m-941 -71 c2 -16 -38 -16 -42
0 -3 9 -8 25 -13 36 -7 18 -4 17 23 -5 18 -14 32 -28 32 -31z m-1044 1 c-3 -5
-13 -10 -21 -10 -8 0 -12 -5 -9 -10 10 -16 -5 -50 -21 -50 -18 0 -10 35 14 63
16 18 48 24 37 7z m1525 -20 c20 -20 27 -71 14 -104 -9 -24 -24 -19 -24 7 0
12 -4 29 -9 36 -6 10 -8 -1 -4 -30 l5 -44 -21 33 c-12 18 -21 44 -21 57 0 22
3 24 30 18 24 -4 29 -3 25 9 -4 9 -16 20 -28 26 -18 9 -19 11 -4 11 9 1 26 -8
37 -19z m-1503 -39 c1 -11 -5 -25 -13 -32 -8 -6 -14 -25 -14 -42 0 -29 0 -30
-20 -12 -26 24 -25 53 2 82 26 28 43 29 45 4z m467 -6 c-4 -8 -11 -12 -16 -9
-6 4 -5 10 3 15 19 12 19 11 13 -6z m353 -13 c-10 -11 -13 -23 -8 -31 11 -17
41 -7 41 14 0 8 5 15 10 15 17 0 11 -46 -9 -64 -28 -25 -45 -98 -37 -161 4
-33 2 -56 -4 -60 -6 -4 -7 -11 -4 -17 4 -6 2 -8 -4 -4 -10 6 -85 -38 -77 -46
2 -2 -17 -1 -42 2 -26 3 -49 11 -54 20 -4 8 -30 62 -58 120 -27 58 -61 125
-76 148 l-27 44 110 -3 c61 -2 114 0 118 4 4 4 19 7 33 7 14 1 40 7 56 15 42
19 51 18 32 -3z m720 -14 c-3 -7 -5 -2 -5 12 0 14 2 19 5 13 2 -7 2 -19 0 -25z
m-509 -15 c2 -17 10 -37 18 -43 8 -7 14 -19 14 -26 0 -8 5 -14 10 -14 6 0 10
-4 10 -10 0 -16 -36 -12 -50 5 -10 12 -16 13 -24 5 -8 -8 -8 -13 0 -18 7 -4 8
-15 4 -27 -6 -17 -9 -13 -19 20 -12 44 -14 104 -5 130 11 27 39 13 42 -22z
m-535 -70 c30 -53 34 -67 27 -97 -8 -37 -45 -90 -70 -101 -9 -4 -6 3 6 17 46
50 55 96 14 70 -28 -17 -35 -15 -19 6 43 53 44 85 1 52 -35 -28 -47 -25 -27 6
l17 26 -32 -7 c-30 -6 -31 -6 -19 13 7 12 22 23 34 27 20 5 20 5 0 20 -19 15
-19 16 3 21 12 4 19 11 15 18 -4 7 -2 8 5 1 6 -5 26 -38 45 -72z m1287 57 c0
-14 -24 -22 -52 -18 l-23 5 25 11 c32 14 50 15 50 2z m-2071 -30 c26 0 41 -5
41 -12 0 -10 3 -9 9 1 6 10 10 10 16 1 6 -9 10 -9 16 1 6 10 9 10 9 2 0 -7 7
-10 15 -7 8 4 15 1 15 -5 0 -6 7 -11 15 -11 8 0 15 -7 15 -15 0 -8 -8 -15 -19
-15 -10 0 -24 7 -31 15 -8 9 -28 15 -54 14 -34 -1 -36 -2 -16 -8 24 -7 24 -7
5 -18 -19 -11 -18 -12 8 -24 22 -10 33 -10 48 -1 10 7 26 12 36 12 13 0 10 -7
-14 -32 -47 -49 -55 -79 -33 -114 11 -15 30 -36 42 -46 16 -12 19 -18 8 -18
-10 -1 -8 -5 7 -13 12 -7 21 -16 21 -22 0 -5 13 -16 31 -24 32 -15 44 -35 14
-24 -10 3 -2 -9 17 -26 19 -18 29 -30 23 -26 -7 3 -13 2 -13 -3 0 -5 10 -14
23 -20 18 -9 19 -11 4 -11 -14 -1 -16 -6 -11 -28 14 -57 23 -68 18 -23 -3 33
-2 40 5 25 5 -11 10 -31 11 -45 1 -23 2 -23 10 -5 8 18 9 18 10 -5 2 -14 2
-30 1 -37 -1 -11 56 -33 87 -33 6 0 12 -4 12 -10 0 -5 -14 -10 -30 -10 -28 0
-30 -2 -20 -20 10 -18 8 -20 -20 -20 -30 0 -30 0 -14 -25 13 -20 14 -25 2 -25
-10 0 -13 -10 -10 -37 l4 -38 -24 27 c-14 14 -40 34 -59 43 -19 10 -44 29 -56
44 -12 14 -22 20 -23 14 0 -22 -29 -14 -46 12 -9 13 -16 40 -16 58 0 36 -16
76 -19 47 -1 -8 0 -24 1 -34 1 -16 -3 -14 -24 11 -14 16 -45 38 -69 47 -24 9
-49 27 -56 39 l-12 22 5 -23 c2 -12 0 -20 -5 -16 -5 3 -9 14 -9 25 0 11 -4 18
-10 14 -5 -3 -6 -13 -3 -22 4 -11 3 -14 -5 -9 -7 4 -12 12 -12 17 0 6 -7 17
-15 25 -8 9 -15 27 -15 40 0 16 -4 23 -11 18 -6 -3 -9 -15 -6 -25 3 -11 1 -16
-5 -13 -5 4 -8 17 -5 30 2 13 0 24 -4 24 -5 0 -9 -10 -10 -22 l0 -23 -10 23
c-5 13 -7 28 -4 33 4 5 -1 6 -9 3 -20 -8 -20 14 -1 40 8 11 15 24 15 30 0 5
-6 1 -14 -10 -8 -10 -18 -16 -22 -12 -4 4 -13 0 -21 -10 -12 -15 -13 -14 -7
10 3 14 1 36 -6 47 -9 17 -15 19 -30 11 -11 -6 -20 -18 -20 -26 0 -12 5 -10
20 7 l19 24 -1 -40 c0 -30 -2 -34 -6 -15 -5 21 -7 17 -13 -20 -5 -38 -7 -41
-14 -22 -4 12 -10 22 -14 22 -13 0 -31 -57 -31 -101 0 -30 -6 -51 -16 -59 -13
-12 -15 -7 -9 41 5 53 5 53 -15 -21 -11 -41 -23 -83 -26 -94 -4 -12 -2 -16 5
-12 16 10 13 -7 -5 -30 -15 -19 -15 -18 -9 3 3 12 2 24 -3 27 -13 8 10 115 49
230 51 153 122 234 169 191 12 -11 20 -31 20 -50 0 -96 72 -227 139 -255 17
-7 28 -16 25 -21 -3 -5 -2 -8 3 -7 14 4 57 -23 80 -51 12 -14 22 -21 23 -14 0
7 -20 29 -45 50 -29 24 -45 45 -45 60 0 30 -18 39 -23 11 -3 -20 -7 -16 -25
22 -12 25 -22 38 -22 30 -1 -9 -5 -6 -10 7 -5 12 -5 44 -1 72 4 27 4 56 -1 64
-5 9 -4 18 2 22 5 3 10 17 10 31 0 13 9 33 20 44 24 24 25 30 5 30 -33 0 -84
41 -85 69 0 10 3 11 13 2 8 -6 16 -9 19 -6 3 3 16 -5 30 -18 14 -13 30 -21 36
-19 14 4 16 38 3 46 -5 3 -11 15 -14 26 -4 16 -2 18 13 10 10 -6 37 -10 59
-10z m1722 -7 c-12 -20 -14 -14 -5 12 4 9 9 14 11 11 3 -2 0 -13 -6 -23z
m-521 7 c12 -8 9 -10 -12 -10 -24 0 -28 -4 -28 -29 0 -25 5 -29 43 -38 l42
-11 -62 -1 c-56 -1 -63 1 -63 18 0 29 18 35 23 9 3 -14 5 -8 4 12 -2 55 17 73
53 50z m50 -10 c0 -5 -4 -10 -9 -10 -6 0 -13 5 -16 10 -3 6 1 10 9 10 9 0 16
-4 16 -10z m720 -2 c0 -4 -7 -8 -15 -8 -8 0 -18 0 -22 -1 -4 0 -9 3 -10 8 -2
5 8 9 22 9 14 0 25 -4 25 -8z m-2067 -5 c-7 -2 -19 -2 -25 0 -7 3 -2 5 12 5
14 0 19 -2 13 -5z m32 -23 c3 -5 1 -10 -4 -10 -6 0 -11 5 -11 10 0 6 2 10 4
10 3 0 8 -4 11 -10z m1292 -12 c-3 -8 -6 -5 -6 6 -1 11 2 17 5 13 3 -3 4 -12
1 -19z m672 -24 l19 -41 -37 9 c-48 12 -52 12 -78 4 -31 -10 -29 8 3 41 l27
27 24 -30 c17 -19 21 -22 14 -7 -14 28 -14 46 0 41 5 -2 18 -22 28 -44z m110
43 c-2 -1 -13 -9 -24 -17 -19 -14 -19 -14 -6 3 7 9 18 17 24 17 6 0 8 -1 6 -3z
m-1839 -43 c-7 -8 -10 -17 -7 -20 3 -3 13 6 22 20 19 29 45 24 45 -9 0 -18 -4
-21 -24 -18 -13 3 -27 0 -30 -6 -4 -6 -15 -11 -24 -11 -9 0 -24 -4 -32 -10
-12 -7 -12 -12 4 -29 11 -12 15 -21 10 -22 -5 0 2 -5 15 -10 33 -13 24 -17
-26 -11 -57 6 -56 26 2 92 25 28 45 56 46 63 0 9 2 9 6 -1 3 -7 -1 -19 -7 -28z
m1145 -114 c6 -9 4 -11 -6 -5 -47 27 -69 78 -54 125 6 18 11 10 30 -43 12 -35
26 -70 30 -77z m-1235 116 c-7 -7 -13 -7 -20 0 -6 6 -3 10 10 10 13 0 16 -4
10 -10z m1102 -33 c-13 -3 -26 -11 -29 -20 -5 -12 -8 -12 -15 -1 -7 9 -8 8 -4
-5 3 -10 6 -25 6 -33 0 -27 20 -14 21 14 2 23 2 24 6 5 3 -16 11 -23 26 -23
39 0 49 13 37 46 -8 21 -8 26 0 18 6 -6 12 -23 13 -39 2 -25 -2 -28 -51 -41
-30 -8 -57 -12 -62 -9 -9 6 -21 75 -14 87 3 4 24 7 47 7 24 -1 32 -4 19 -6z
m-747 -73 c-3 -5 -1 -11 4 -14 5 -4 12 -2 16 4 13 21 30 9 29 -20 -1 -41 -7
-44 -46 -25 -28 14 -30 14 -14 0 24 -18 16 -19 -19 -3 -27 12 -72 75 -61 85 3
4 12 1 18 -5 18 -18 23 -15 37 15 l13 28 14 -28 c8 -15 12 -32 9 -37z m1450
50 c-27 -12 -43 -12 -25 0 8 5 22 9 30 9 10 0 8 -3 -5 -9z m452 -42 c45 -69
124 -323 123 -400 -1 -38 -16 -1 -31 75 -7 38 -18 67 -25 67 -6 0 -15 11 -18
25 -4 14 -11 25 -16 25 -6 0 -10 14 -10 30 0 17 -4 30 -10 30 -5 0 -10 15 -10
33 0 24 -3 28 -10 17 -5 -8 -10 -10 -11 -5 0 6 -4 1 -8 -9 -7 -19 -8 -19 -13
2 -4 13 -2 20 3 16 11 -6 3 35 -14 76 -10 24 -11 24 -17 -15 -5 -29 -8 -33
-10 -15 -1 14 -9 -9 -17 -50 -8 -41 -18 -79 -24 -85 -5 -5 -9 -17 -9 -27 0
-10 -4 -18 -10 -18 -5 0 -10 -6 -10 -12 0 -13 -42 -58 -54 -58 -3 0 -7 8 -7
18 -1 16 -2 16 -6 -1 -4 -17 -53 -48 -82 -53 -8 -2 -28 -12 -45 -24 -28 -19
-28 -18 4 9 19 17 40 31 47 31 7 0 13 4 13 8 0 4 22 31 50 60 49 52 96 143
121 235 22 83 57 88 106 15z m-107 23 c0 -11 -4 -22 -9 -26 -5 -3 -13 -20 -16
-38 -4 -17 -16 -50 -26 -71 -11 -22 -19 -46 -19 -53 0 -8 -7 -16 -15 -19 -8
-4 -15 -12 -15 -18 0 -7 -14 -25 -31 -42 l-32 -29 7 27 c3 15 22 44 41 65 24
26 33 44 29 58 -4 14 -2 16 4 7 6 -9 16 10 33 60 13 40 28 75 33 77 4 2 2 7
-5 12 -11 7 -10 9 4 9 10 0 17 -8 17 -19z m-2353 -26 c1 -18 -1 -22 -4 -10 -7
27 -23 43 -24 25 -5 -72 -5 -88 3 -84 11 7 10 -3 -2 -27 -7 -13 -7 -19 0 -19
5 0 10 -7 10 -15 0 -8 -4 -15 -8 -15 -11 0 -34 68 -27 80 3 5 2 10 -3 10 -18
0 -21 54 -4 73 25 28 57 18 59 -18z m1773 -10 c10 6 11 1 6 -21 -10 -39 -26
-56 -48 -51 -10 3 -16 1 -12 -4 3 -5 -4 -9 -16 -9 -12 0 -18 5 -15 10 3 6 1
10 -5 10 -7 0 -8 6 -1 18 6 11 6 24 0 35 -12 20 1 23 20 5 11 -11 12 -8 7 13
-8 38 6 44 30 13 14 -17 26 -24 34 -19z m-1460 25 c12 -8 12 -10 -5 -10 -11 0
-27 5 -35 10 -12 8 -12 10 5 10 11 0 27 -5 35 -10z m1625 0 c-3 -5 -14 -10
-23 -10 -15 0 -15 2 -2 10 20 13 33 13 25 0z m132 -13 c-5 -12 -87 -30 -87
-19 0 5 85 40 89 36 2 -2 1 -10 -2 -17z m-1417 -1 c0 -3 -4 -8 -10 -11 -5 -3
-10 -1 -10 4 0 6 5 11 10 11 6 0 10 -2 10 -4z m1008 -16 c7 -11 8 -20 4 -20
-5 0 -17 9 -27 20 -14 15 -15 20 -4 20 8 0 20 -9 27 -20z m-241 -16 c42 -32
42 -41 -1 -46 -26 -3 -33 0 -31 12 2 8 4 17 4 20 1 2 6 -1 13 -8 7 -7 17 -12
23 -12 5 0 -6 14 -25 30 -43 36 -30 40 17 4z m-130 -11 c-10 -9 33 -53 52 -53
13 -1 13 -2 -2 -11 -9 -6 -15 -14 -13 -18 3 -5 -7 -19 -22 -32 -25 -22 -25
-22 -8 -1 11 12 14 22 9 22 -6 0 -16 -7 -23 -15 -9 -11 -16 -12 -25 -5 -9 8
-15 8 -20 0 -3 -5 1 -10 9 -10 20 0 29 -17 15 -26 -8 -5 -9 -3 -4 6 4 7 -6 2
-23 -10 -17 -13 -29 -26 -27 -30 3 -4 -19 -6 -48 -5 -41 3 -57 -1 -74 -17 -12
-12 -29 -18 -37 -15 -23 9 -19 26 4 20 14 -4 20 0 20 12 0 11 -5 15 -15 12
-11 -5 -12 -1 -5 19 17 45 9 60 -9 19 -10 -22 -17 -42 -15 -46 1 -3 -10 -10
-27 -16 -23 -9 -29 -9 -29 3 0 8 6 11 15 8 9 -4 15 0 15 9 0 8 -6 17 -12 19
-10 4 -10 10 0 32 11 25 10 28 -8 33 -11 3 -20 13 -19 22 0 10 2 11 6 4 2 -7
9 -13 14 -13 12 0 11 28 -1 32 -6 2 -4 12 6 26 19 28 34 20 34 -18 0 -33 23
-50 67 -50 37 1 116 37 108 50 -3 5 0 7 7 5 8 -3 25 6 38 20 13 14 30 25 38
25 9 0 12 -3 9 -7z m-322 -33 c-19 -37 -19 -57 0 -68 13 -7 13 -14 4 -40 -6
-18 -9 -46 -7 -62 3 -17 0 -26 -5 -23 -5 3 -7 31 -3 64 4 43 2 58 -6 56 -21
-4 -20 32 2 68 26 43 36 46 15 5z m1437 -2 c-8 -8 -9 -4 -5 13 4 13 8 18 11
10 2 -7 -1 -18 -6 -23z m-757 12 c-3 -5 -21 -9 -38 -9 l-32 2 35 7 c19 4 36 8
38 9 2 0 0 -3 -3 -9z m632 -22 c-3 -8 -6 -5 -6 6 -1 11 2 17 5 13 3 -3 4 -12
1 -19z m-712 2 c8 -13 -5 -13 -25 0 -13 8 -13 10 2 10 9 0 20 -4 23 -10z m895
-95 c7 17 9 15 9 -10 1 -18 10 -38 21 -48 16 -14 20 -28 19 -62 -2 -25 -7 -45
-12 -45 -5 0 -7 6 -4 14 3 8 1 31 -5 52 -7 28 -12 34 -19 23 -6 -10 -9 -3 -9
21 0 23 -3 30 -9 22 -17 -28 -29 47 -13 85 5 13 8 5 11 -27 2 -35 5 -41 11
-25z m-770 5 c5 0 11 8 13 18 3 9 5 2 6 -16 1 -30 -1 -31 -19 -20 -16 10 -28
9 -67 -5 -44 -16 -48 -16 -62 -1 -9 9 -10 14 -3 10 6 -4 12 -2 12 5 0 8 4 8
15 -1 12 -10 15 -10 15 4 0 19 16 21 23 4 3 -8 6 -6 6 5 1 19 21 24 21 5 0 -7
6 -4 12 7 11 18 13 18 16 3 2 -10 7 -18 12 -18z m687 -2 c-3 -7 -5 -2 -5 12 0
14 2 19 5 13 2 -7 2 -19 0 -25z m-2387 6 c0 -8 -5 -12 -10 -9 -6 4 -8 11 -5
16 9 14 15 11 15 -7z m625 -20 c8 3 15 0 15 -6 0 -7 5 -6 15 2 12 10 15 9 15
-6 0 -14 3 -15 12 -6 17 17 33 15 18 -3 -16 -20 -38 -19 -74 3 -29 17 -30 17
-54 -5 -29 -27 -42 -29 -42 -8 0 8 9 15 21 15 11 0 17 5 14 10 -3 6 1 10 9 10
9 0 16 8 17 18 0 12 3 11 10 -7 6 -15 15 -21 24 -17z m121 21 c-3 -9 0 -15 9
-15 8 0 15 -7 15 -17 0 -15 -1 -15 -18 0 -10 10 -22 14 -25 10 -4 -3 -7 -2 -7
3 0 10 20 34 28 34 2 0 2 -7 -2 -15z m1130 -31 c9 -47 -33 -140 -62 -140 -11
0 -30 -4 -43 -8 l-24 -8 22 31 c19 27 20 32 7 37 -13 5 -10 11 14 32 17 15 30
32 30 39 0 7 7 13 15 13 8 0 15 9 15 20 0 34 19 22 26 -16z m94 29 c-8 -3 -23
-12 -32 -21 -11 -9 -18 -11 -18 -4 0 13 29 32 50 31 13 -1 13 -1 0 -6z m-2176
-30 c-8 -32 -12 -39 -19 -31 -9 8 6 58 16 58 5 0 6 -12 3 -27z m48 9 c3 -9 1
-26 -3 -37 -6 -15 -8 -11 -8 18 -1 40 4 48 11 19z m590 -14 c-4 -17 -2 -20 13
-15 15 6 17 3 12 -23 -4 -17 -2 -30 3 -30 6 0 10 7 10 16 0 11 6 14 20 9 15
-5 18 -3 14 9 -3 9 -1 16 4 16 20 0 21 -17 3 -34 -15 -13 -20 -14 -23 -4 -3 7
-7 1 -10 -14 -4 -20 -1 -28 9 -28 8 0 23 -8 34 -19 20 -19 20 -19 -25 -34 -46
-16 -56 -14 -56 11 0 8 -9 34 -21 57 -20 40 -20 44 -5 74 19 36 27 40 18 9z
m1935 -15 c-3 -10 -5 -4 -5 12 0 17 2 24 5 18 2 -7 2 -21 0 -30z m60 5 c-3 -7
-5 -2 -5 12 0 14 2 19 5 13 2 -7 2 -19 0 -25z m-1475 -23 c3 -37 0 -45 -14
-45 -23 0 -31 -16 -24 -45 4 -16 11 -22 21 -19 13 5 15 -8 15 -79 0 -89 14
-123 45 -111 22 9 27 34 25 118 -1 67 1 78 14 73 9 -4 16 -5 16 -3 0 3 3 11 6
19 4 11 -1 13 -20 10 -26 -5 -26 -7 -26 -92 0 -91 -11 -121 -37 -100 -9 8 -13
39 -13 100 0 72 -3 89 -15 89 -8 0 -15 7 -15 16 0 13 6 15 28 9 72 -18 87 -17
125 10 22 14 47 23 56 20 21 -6 106 35 106 53 0 6 3 12 8 12 4 0 68 0 142 0
l135 0 0 -30 c0 -19 -7 -33 -20 -40 -25 -13 -30 -76 -5 -66 13 4 15 -8 15 -78
0 -70 3 -86 20 -101 19 -17 21 -17 40 0 17 15 20 31 21 104 0 47 3 80 6 73 8
-19 23 -3 23 24 0 15 -13 38 -31 56 l-31 31 39 13 c21 8 48 14 61 14 l22 0 0
-180 0 -181 -70 -69 c-77 -78 -93 -101 -84 -124 9 -25 26 -19 20 7 -3 12 -3
16 0 9 3 -6 10 -10 15 -6 5 3 9 -10 9 -28 0 -39 15 -58 44 -58 15 0 17 3 8 12
-8 8 -9 15 -1 25 17 19 23 16 43 -22 18 -32 18 -41 7 -105 -7 -39 -16 -70 -21
-70 -4 0 -124 119 -265 265 -142 146 -262 265 -266 265 -5 0 -127 -120 -271
-266 l-263 -266 -12 48 c-19 81 -16 107 12 121 24 11 46 1 25 -12 -18 -11 -10
-26 13 -23 14 2 21 9 21 20 -1 10 2 16 6 13 5 -3 12 4 15 16 4 11 16 30 26 40
26 26 24 56 -7 82 -14 12 -45 41 -69 65 l-43 43 5 177 c3 97 9 181 13 185 8 9
60 -12 60 -24 0 -5 -12 -19 -26 -32 -20 -18 -24 -30 -19 -46 4 -14 12 -20 21
-17 10 4 14 -14 16 -86 3 -75 6 -93 21 -102 15 -9 22 -7 38 13 15 19 19 39 19
102 0 58 3 78 13 77 6 -2 13 9 15 24 2 19 -2 28 -17 33 -17 5 -19 12 -14 38 8
42 11 44 21 16 l9 -23 18 27 c16 26 22 27 95 27 l78 0 4 -45z m834 32 c8 3 14
0 14 -6 0 -12 -11 -14 -34 -5 -9 3 -13 11 -9 17 5 8 8 8 10 0 3 -7 11 -9 19
-6z m-1975 -64 c-10 -17 -10 -17 -11 2 0 11 4 31 8 45 l7 25 3 -27 c2 -15 -1
-35 -7 -45z m56 30 c-3 -10 -5 -4 -5 12 0 17 2 24 5 18 2 -7 2 -21 0 -30z
m1685 15 c-7 -7 -12 -8 -12 -2 0 6 3 14 7 17 3 4 9 5 12 2 2 -3 -1 -11 -7 -17z
m855 -25 c-3 -10 -5 -2 -5 17 0 19 2 27 5 18 2 -10 2 -26 0 -35z m-1687 21 c0
-8 -5 -12 -10 -9 -6 4 -8 11 -5 16 9 14 15 11 15 -7z m-820 -30 c0 -21 -4 -33
-10 -29 -17 10 -11 65 7 65 2 0 3 -16 3 -36z m1825 26 c-3 -5 -10 -10 -16 -10
-5 0 -9 5 -9 10 0 6 7 10 16 10 8 0 12 -4 9 -10z m34 -4 c9 -10 8 -16 -4 -26
-13 -11 -15 -8 -15 14 0 30 3 32 19 12z m-566 -10 c-3 -4 -22 -5 -43 -2 -28 4
-41 2 -51 -11 -19 -22 -74 -44 -93 -37 -21 8 -20 17 3 38 18 17 20 16 26 -3 8
-27 18 -26 51 3 21 17 39 23 70 22 23 0 40 -5 37 -10z m-640 -30 c-3 -19 -1
-36 6 -40 6 -4 11 -12 11 -18 0 -6 -11 1 -25 16 -13 14 -30 26 -36 26 -7 0 -2
11 11 25 32 34 40 31 33 -9z m152 14 c3 -11 16 -25 28 -32 l21 -11 -22 -8
c-20 -8 -22 -15 -22 -97 0 -66 -4 -93 -14 -101 -24 -20 -36 18 -36 108 0 62
-3 82 -16 89 -13 7 -11 13 13 40 32 37 39 39 48 12z m872 0 c3 -10 14 -22 24
-25 23 -7 25 -25 4 -25 -12 0 -15 -17 -15 -89 0 -69 -4 -91 -16 -102 -29 -24
-44 14 -44 108 0 67 -3 83 -15 83 -21 0 -19 18 4 25 10 3 21 15 24 25 3 11 10
20 17 20 7 0 14 -9 17 -20z m764 -16 c-9 -28 -9 -29 -10 -3 -1 14 2 29 6 32
11 12 13 2 4 -29z m117 15 c3 -11 1 -11 -7 1 -9 12 -11 10 -12 -10 0 -14 -4
-34 -9 -45 -6 -15 -9 -9 -9 27 -1 38 2 46 16 44 9 -2 19 -9 21 -17z m-2527
-14 c6 15 8 10 8 -20 0 -37 -1 -39 -14 -21 -8 11 -14 31 -14 45 l2 26 5 -25
c4 -23 5 -24 13 -5z m-143 -60 c1 -54 -2 -74 -10 -69 -8 5 -9 2 -5 -9 3 -10 2
-17 -3 -17 -13 0 -13 26 -1 68 6 20 6 32 0 32 -5 0 -9 4 -9 9 0 13 19 61 23
61 3 0 5 -34 5 -75z m2398 46 c-12 -19 -24 -12 -19 10 4 13 9 17 15 11 6 -6 7
-15 4 -21z m188 -35 c-5 -14 -13 -25 -19 -23 -11 2 -11 48 0 75 12 29 29 -20
19 -52z m-2549 -1 c-17 -56 -18 -68 -6 -61 5 3 8 -36 7 -89 -2 -136 -16 -101
-19 46 -1 96 1 130 12 143 21 25 22 16 6 -39z m2718 12 c3 -22 2 -35 -4 -32
-5 4 -9 22 -9 42 0 45 5 40 13 -10z m-2563 -22 c0 -25 -2 -27 -14 -15 -9 10
-12 26 -9 43 7 36 23 17 23 -28z m1780 29 c0 -18 -44 -48 -49 -33 -6 18 20 58
35 52 8 -3 14 -11 14 -19z m551 -1 c-12 -20 -14 -14 -5 12 4 9 9 14 11 11 3
-2 0 -13 -6 -23z m173 11 c3 -8 2 -12 -4 -9 -6 3 -10 10 -10 16 0 14 7 11 14
-7z m-2578 -58 c-3 -12 -6 -29 -6 -39 0 -11 -5 -15 -11 -11 -7 4 -9 24 -6 52
5 43 4 45 -9 22 l-13 -25 -1 26 c0 14 3 29 7 33 13 12 45 -36 39 -58z m2554
17 c-1 -38 -3 -44 -11 -30 -9 16 -4 77 7 77 2 0 4 -21 4 -47z m-170 29 c0 -5
-7 -17 -15 -28 -15 -19 -20 -8 -9 20 6 17 24 22 24 8z m-2553 -132 c-12 -18
-14 -13 -14 43 0 77 21 99 25 27 2 -31 -2 -58 -11 -70z m2513 111 c0 -5 -7
-14 -15 -21 -12 -10 -15 -10 -15 2 0 8 3 18 7 21 9 10 23 9 23 -2z m76 -17
c-5 -17 -3 -23 4 -19 16 10 12 -21 -5 -35 -13 -10 -15 -9 -15 11 0 29 10 69
17 69 3 0 2 -12 -1 -26z m-2306 -10 c0 -22 -2 -25 -15 -14 -17 14 -21 35 -5
25 6 -3 10 -1 10 4 0 6 2 11 5 11 3 0 5 -12 5 -26z m35 -14 c3 0 4 5 3 11 -2
6 2 13 8 16 7 2 10 -5 7 -22 -3 -14 -8 -25 -12 -25 -14 0 -31 25 -30 45 0 19
1 19 9 -2 5 -13 12 -23 15 -23z m2155 31 c0 -5 -7 -14 -15 -21 -12 -10 -15
-10 -15 2 0 8 3 18 7 21 9 10 23 9 23 -2z m199 2 c0 -5 -7 -24 -14 -43 -14
-34 -14 -34 -10 -5 2 17 4 36 4 43 1 6 6 12 11 12 6 0 10 -3 9 -7z m77 -55
c-12 -124 -19 -168 -25 -173 -7 -3 -7 19 -2 118 0 16 5 26 9 23 5 -3 7 17 4
44 -3 36 -1 50 8 50 10 0 11 -15 6 -62z m-2550 15 c-3 -21 -6 -46 -6 -56 0
-10 -4 -15 -10 -12 -11 7 -14 64 -4 89 12 32 27 16 20 -21z m630 -50 c-3 -42
-6 -87 -6 -100 l0 -25 -24 29 c-38 45 -41 70 -11 77 33 8 33 36 1 36 -14 0
-37 5 -53 11 l-28 11 38 13 c21 7 41 16 44 19 4 3 15 6 26 6 19 0 20 -5 13
-77z m1264 63 c0 -16 -21 -26 -54 -26 -12 0 -32 -7 -44 -16 -21 -15 -22 -14
-22 15 0 26 4 30 33 34 69 8 87 7 87 -7z m330 5 c0 -12 -20 -25 -27 -18 -7 7
6 27 18 27 5 0 9 -4 9 -9z m132 -63 c-14 -14 -17 -11 -27 21 -5 16 -4 21 4 17
7 -5 11 2 12 16 1 19 3 17 12 -10 7 -24 7 -36 -1 -44z m-2445 40 c-3 -8 -6 -5
-6 6 -1 11 2 17 5 13 3 -3 4 -12 1 -19z m289 -15 c-11 -11 -17 4 -9 23 7 18 8
18 11 1 2 -10 1 -21 -2 -24z m2290 -8 c-4 -14 -11 -25 -16 -25 -6 0 -6 9 0 25
5 14 7 25 4 25 -3 0 -2 5 2 12 11 18 17 -7 10 -37z m94 9 c0 -13 -4 -24 -8
-24 -4 0 -8 13 -7 29 0 16 3 27 7 24 5 -2 8 -15 8 -29z m-272 1 c-3 -13 -2
-22 2 -20 12 8 20 -39 9 -50 -7 -7 -8 -4 -3 8 5 13 2 16 -10 11 -12 -5 -16 0
-16 19 0 27 9 57 17 57 3 0 3 -11 1 -25z m309 3 c-3 -8 -6 -5 -6 6 -1 11 2 17
5 13 3 -3 4 -12 1 -19z m-2694 -40 c-2 -39 -1 -48 6 -33 8 17 10 14 10 -17 1
-39 -13 -58 -23 -32 -12 30 -5 134 9 134 1 0 0 -24 -2 -52z m103 -37 c-4 -2
-12 3 -17 10 -12 19 -11 62 1 54 6 -3 11 2 12 12 0 10 4 -2 7 -27 3 -25 2 -47
-3 -49z m33 52 c2 49 21 29 21 -23 0 -27 -4 -50 -10 -50 -16 0 -30 37 -29 77
l2 38 7 -35 c7 -31 7 -32 9 -7z m2214 -25 c-2 -5 -8 -8 -14 -8 -11 0 -12 31
-2 57 6 15 8 13 13 -12 4 -16 5 -33 3 -37z m149 40 c-7 -7 -12 -8 -12 -2 0 6
3 14 7 17 3 4 9 5 12 2 2 -3 -1 -11 -7 -17z m-2192 2 c0 -5 -2 -10 -4 -10 -3
0 -8 5 -11 10 -3 6 -1 10 4 10 6 0 11 -4 11 -10z m2004 -25 c5 -22 4 -26 -4
-15 -9 13 -10 13 -11 0 0 -10 -3 -8 -9 5 -12 27 -12 43 0 25 8 -13 10 -12 10
4 0 26 6 18 14 -19z m271 -35 l-14 -55 6 50 c3 28 6 56 6 63 0 7 4 9 8 5 4 -4
2 -33 -6 -63z m-2395 25 c7 27 8 26 9 -14 1 -38 -1 -42 -14 -31 -9 7 -14 27
-13 49 l1 36 5 -35 5 -35 7 30z m42 -10 c5 28 5 28 7 -7 1 -39 -12 -51 -23
-22 -3 9 -5 30 -5 47 2 30 2 29 9 -8 6 -39 6 -39 12 -10z m2014 8 c-11 -11
-19 6 -11 24 8 17 8 17 12 0 3 -10 2 -21 -1 -24z m33 -5 c1 -5 -3 -8 -9 -8 -5
0 -10 12 -9 28 0 24 1 25 9 7 5 -11 9 -23 9 -27z m421 -14 c0 -35 -13 -46 -23
-19 -4 8 -1 17 5 21 7 4 6 9 -2 14 -7 4 -9 13 -6 19 12 20 26 1 26 -35z
m-2420 0 c0 -31 -2 -35 -15 -24 -17 14 -21 35 -5 25 6 -3 10 3 10 14 0 12 2
21 5 21 3 0 5 -16 5 -36z m2207 -101 c-6 -13 -14 -23 -18 -23 -5 0 -7 -27 -6
-59 1 -33 -1 -57 -5 -54 -5 2 -8 11 -8 18 0 8 -6 12 -14 9 -20 -8 -27 53 -8
69 13 10 14 8 8 -10 -4 -12 -2 -24 4 -28 10 -6 14 29 10 88 -1 15 3 27 9 27 6
0 11 22 12 53 l1 52 13 -60 c9 -42 9 -66 2 -82z m-2659 50 c-17 -42 -20 -57
-10 -60 14 -5 17 -43 3 -43 -10 0 -7 -32 4 -50 3 -6 2 -10 -3 -10 -5 0 -8 -31
-7 -70 1 -38 -2 -67 -6 -64 -5 3 -7 -1 -4 -8 3 -7 -2 -35 -9 -63 -12 -41 -14
-45 -15 -20 0 25 12 205 23 335 5 53 17 103 29 119 22 26 19 -9 -5 -66z m482
57 c2 19 4 20 7 7 3 -10 2 -26 -2 -35 -5 -14 -7 -14 -15 -2 -6 8 -9 24 -9 35
1 16 2 16 9 -5 l8 -25 2 25z m40 -11 c0 -11 -4 -17 -10 -14 -5 3 -10 15 -10
26 0 11 5 17 10 14 6 -3 10 -15 10 -26z m1544 25 c25 -10 19 -48 -14 -79 l-30
-29 0 57 c0 59 6 66 44 51z m656 -125 c6 -58 16 -138 24 -177 14 -74 7 -85
-19 -29 l-15 32 6 -32 c6 -36 -10 -46 -21 -14 -11 35 -23 169 -17 197 3 16 11
35 19 42 18 18 16 30 -4 28 -12 0 -19 7 -21 22 -2 12 1 22 7 22 6 0 11 10 11
23 1 18 2 19 10 6 5 -8 14 -63 20 -120z m107 109 c-3 -8 -6 -5 -6 6 -1 11 2
17 5 13 3 -3 4 -12 1 -19z m-2620 -10 c-3 -8 -6 -5 -6 6 -1 11 2 17 5 13 3 -3
4 -12 1 -19z m2179 13 c-7 -10 13 -71 22 -70 21 3 51 -16 55 -33 3 -11 10 -17
16 -14 10 7 14 -4 25 -72 4 -24 2 -31 -7 -26 -9 5 -8 3 1 -7 11 -12 14 -12 22
1 6 8 9 27 8 42 -5 47 16 28 33 -31 20 -72 44 -118 82 -158 17 -18 27 -33 22
-33 -4 0 -1 -8 7 -17 9 -10 21 -31 27 -48 l11 -30 -4 35 -5 35 21 -44 c19 -41
19 -46 4 -85 -19 -50 -76 -111 -76 -82 0 10 9 29 20 43 24 30 26 89 5 117 -14
19 -15 19 -15 -8 0 -15 4 -25 10 -21 13 8 13 -55 0 -75 -8 -12 -10 -9 -10 13
0 17 -4 26 -10 22 -6 -4 -8 -16 -4 -27 3 -12 1 -24 -6 -28 -19 -12 -2 -65 37
-116 19 -26 29 -43 23 -39 -9 6 -10 1 -4 -16 12 -33 11 -186 -1 -197 -5 -6
-20 -13 -32 -17 -18 -5 -23 -2 -23 11 0 14 -3 15 -12 6 -7 -7 -16 -12 -20 -12
-12 0 -9 34 5 50 10 12 9 12 -5 1 -10 -7 -18 -20 -18 -27 0 -16 -26 -19 -35
-3 -9 14 24 49 47 49 12 0 16 4 12 11 -5 8 1 10 19 7 27 -5 27 -4 12 55 -5 18
-3 27 5 27 21 0 -13 26 -45 34 -31 8 -65 33 -65 48 0 5 11 2 24 -7 18 -12 29
-13 47 -5 l24 10 -26 -5 c-17 -3 -33 2 -47 15 -11 11 -22 15 -24 9 -2 -6 -25
28 -52 76 -48 85 -49 87 -43 153 4 37 9 81 12 97 4 27 4 26 -6 -4 l-10 -34
-19 30 c-10 16 -39 47 -66 69 -71 58 -93 82 -116 125 -11 22 -24 39 -29 39 -5
0 -9 12 -9 27 0 29 25 63 46 63 7 0 18 8 23 18 6 9 11 13 11 7 0 -5 4 -4 9 4
5 7 23 14 41 15 18 1 36 9 41 19 6 9 12 17 15 17 3 0 3 -4 0 -9z m294 5 c0 -3
-4 -8 -10 -11 -5 -3 -10 -1 -10 4 0 6 5 11 10 11 6 0 10 -2 10 -4z m223 -60
c4 -22 3 -35 -2 -30 -5 5 -12 29 -15 54 -7 54 9 33 17 -24z m-304 -68 c-11
-21 -12 -21 -25 -3 -8 10 -13 30 -13 44 2 26 2 26 6 -1 5 -30 25 -39 22 -10
-1 9 0 35 1 57 2 40 2 40 11 -13 6 -37 5 -60 -2 -74z m-2372 90 c-3 -8 -6 -5
-6 6 -1 11 2 17 5 13 3 -3 4 -12 1 -19z m2230 -12 c-4 -9 -11 -16 -17 -16 -11
0 -14 33 -3 44 11 10 26 -11 20 -28z m163 -20 c-7 -7 -10 1 -9 25 0 32 1 33
10 10 6 -16 6 -28 -1 -35z m195 -30 c-4 -39 -12 -74 -18 -78 -9 -6 -9 -8 1 -8
7 0 12 -15 12 -41 0 -22 -4 -38 -8 -35 -5 3 -8 15 -7 28 1 13 -2 31 -6 40 -6
10 -5 19 1 23 7 4 7 12 0 24 -5 10 -6 22 -2 26 7 7 8 12 11 73 0 22 5 31 12
26 8 -4 9 -29 4 -78z m-2710 -46 c-2 -92 -7 -121 -19 -109 -4 3 -10 197 -7
223 1 5 7 3 14 -3 10 -8 13 -37 12 -111z m157 75 c4 24 5 21 7 -16 1 -44 -17
-78 -32 -62 -9 8 -9 72 0 103 7 23 8 21 13 -15 6 -39 6 -39 12 -10z m2215 23
c-3 -8 -6 -5 -6 6 -1 11 2 17 5 13 3 -3 4 -12 1 -19z m23 -5 c0 -33 -16 -61
-27 -50 -4 4 -2 17 5 27 7 11 12 27 12 35 0 8 2 15 5 15 3 0 5 -12 5 -27z m40
-43 c-10 -38 -30 -47 -30 -14 0 8 5 12 10 9 6 -3 10 5 10 19 0 13 3 33 7 43
13 33 15 -11 3 -57z m-580 -487 c0 -26 -75 -176 -99 -197 -15 -14 -34 2 -221
189 l-205 205 -203 -202 -203 -203 -21 25 c-12 14 -39 62 -60 108 l-39 82 263
270 263 270 263 -263 c182 -182 262 -268 262 -284z m-1896 470 c-2 -18 -6 -68
-8 -113 -7 -128 -16 -107 -16 37 0 71 3 133 7 137 11 11 21 -26 17 -61z m234
-5 c1 7 7 10 12 7 15 -9 12 -51 -4 -64 -19 -16 -26 7 -24 77 l1 57 7 -45 c4
-25 8 -39 8 -32z m64 -8 c6 0 8 10 5 23 -4 12 -2 29 3 37 7 10 10 -2 10 -41 0
-31 -6 -63 -13 -74 -13 -17 -15 -16 -25 15 -14 37 -16 103 -4 114 4 4 8 -11
10 -33 2 -23 8 -41 14 -41z m430 58 c-7 -7 -12 -8 -12 -2 0 14 12 26 19 19 2
-3 -1 -11 -7 -17z m1328 3 c0 -25 -41 -56 -51 -39 -11 17 0 30 18 24 10 -4 13
-2 10 8 -6 15 1 26 15 26 4 0 8 -9 8 -19z m724 -136 c1 -121 -1 -139 -10 -103
-5 24 -8 81 -6 128 2 47 4 95 4 108 0 13 2 21 5 18 3 -3 6 -71 7 -151z m-2821
130 c-3 -9 -8 -14 -10 -11 -3 3 -2 9 2 15 9 16 15 13 8 -4z m197 -15 c0 -16
-4 -30 -10 -30 -11 0 -14 43 -3 53 11 12 13 8 13 -23z m201 -20 c6 0 7 9 4 20
-4 12 -2 20 5 20 15 0 9 -92 -7 -97 -15 -5 -37 73 -27 96 6 12 9 10 12 -11 2
-16 8 -28 13 -28z m49 25 c1 17 4 24 7 17 7 -19 -6 -64 -17 -57 -6 3 -9 21 -9
38 l1 32 8 -30 8 -30 2 30z m37 -7 c-3 -7 -5 -2 -5 12 0 14 2 19 5 13 2 -7 2
-19 0 -25z m72 15 c9 -17 10 -17 16 -1 6 16 8 16 26 0 17 -17 17 -68 -1 -57
-8 5 -22 -36 -15 -44 8 -7 34 32 35 51 0 9 5 20 11 24 8 4 9 -1 5 -17 -7 -23
-7 -23 8 -5 15 19 16 19 17 -10 0 -25 2 -27 9 -9 8 17 9 15 7 -10 -1 -18 -7
-29 -14 -27 -7 1 -13 -3 -13 -9 0 -22 -44 -99 -56 -99 -6 0 -20 -12 -29 -27
-10 -16 -24 -32 -32 -36 -18 -11 -59 -97 -68 -143 -6 -32 -21 -68 -63 -144 -5
-8 -15 -28 -23 -44 -8 -16 -23 -34 -33 -40 -43 -25 -85 -81 -86 -113 0 -17 -6
-38 -12 -45 -26 -28 -20 -39 17 -32 41 7 65 -8 65 -40 0 -20 -1 -19 -13 4 -7
14 -21 26 -32 28 -18 2 -19 2 -2 -8 20 -13 23 -50 4 -50 -7 0 -17 10 -22 22
-6 13 -19 24 -30 26 -18 2 -19 2 -2 -8 27 -17 21 -40 -12 -40 -38 0 -62 37
-60 93 1 23 0 47 -1 52 -7 24 42 120 61 120 25 0 32 65 14 122 -10 30 -15 57
-11 60 3 3 1 14 -4 24 -7 11 -6 27 1 46 6 16 6 24 1 18 -40 -41 -48 -151 -14
-188 12 -13 22 -29 22 -36 0 -23 -34 -6 -57 28 -43 63 -23 167 47 250 34 40
48 50 64 45 19 -6 20 -5 3 7 -16 13 -15 17 15 67 31 49 57 71 44 35 -6 -15 -5
-15 13 1 15 13 20 14 24 4 3 -7 6 -2 6 11 1 13 4 22 7 18 3 -3 16 5 28 18 63
69 86 98 86 111 0 20 37 17 49 -3z m2310 -283 c13 -42 14 -53 2 -46 -11 7 -33
141 -33 207 -1 123 6 125 12 4 4 -71 12 -146 19 -165z m-2061 269 c-2 -6 -8
-10 -13 -10 -5 0 -11 4 -13 10 -2 6 4 11 13 11 9 0 15 -5 13 -11z m-802 -134
c-1 -69 -5 -125 -9 -125 -5 0 -6 -8 -3 -18 4 -10 -1 -27 -10 -38 -15 -18 -15
-17 -9 16 4 19 8 46 11 60 2 14 4 67 4 118 -1 81 3 112 14 112 1 0 2 -56 2
-125z m2038 94 c-9 -15 7 -10 33 11 34 26 41 25 35 -5 -5 -29 4 -32 29 -9 16
14 18 13 24 -15 3 -16 13 -35 21 -42 8 -6 14 -19 14 -28 0 -8 28 -42 62 -73
55 -52 59 -58 36 -58 -14 0 -32 -8 -41 -18 -21 -23 -37 -130 -37 -245 0 -80
-2 -90 -25 -112 -14 -15 -36 -25 -53 -25 -33 0 -82 -34 -82 -56 0 -8 -14 -23
-32 -34 -32 -19 -32 -19 -42 2 -17 33 -41 44 -73 32 -35 -12 -44 -49 -14 -59
27 -8 26 -15 -5 -78 -17 -33 -29 -75 -32 -114 -2 -35 -5 -63 -6 -63 0 0 -19 7
-41 15 -91 32 -194 8 -254 -61 -24 -27 -29 -29 -38 -15 -9 13 -15 14 -30 5
-16 -10 -22 -9 -31 7 -14 23 -50 25 -58 4 -4 -10 -14 -13 -29 -9 -15 4 -24 0
-29 -11 -5 -14 -10 -12 -31 13 -53 63 -167 90 -262 63 l-31 -9 -7 50 c-4 27
-22 80 -41 116 -38 75 -40 82 -20 82 20 0 37 25 30 44 -3 9 -18 19 -32 23 -21
5 -31 0 -51 -25 -24 -28 -28 -29 -51 -17 -14 8 -33 14 -42 15 -12 0 -18 8 -18
23 0 39 -26 64 -74 71 -24 4 -52 16 -62 27 -16 18 -17 27 -7 96 15 105 0 206
-35 233 -13 11 -31 20 -39 20 -21 0 -11 23 14 35 12 5 26 19 32 32 6 13 15 23
20 23 5 0 11 12 13 28 2 19 8 26 21 24 14 -2 17 5 17 35 1 36 1 37 16 18 l15
-20 15 20 c8 11 13 28 10 38 -7 27 30 21 54 -10 l21 -27 -25 -19 c-15 -11 -26
-28 -26 -42 0 -26 21 -46 28 -27 6 20 43 14 49 -8 5 -17 8 -18 21 -8 10 8 13
9 9 1 -4 -6 -1 -14 5 -16 7 -3 3 -6 -8 -6 -25 -1 -37 -25 -29 -52 4 -13 1 -19
-9 -19 -18 0 -19 -4 -7 -28 5 -9 14 -50 20 -90 21 -140 105 -306 209 -415 66
-69 278 -206 346 -223 44 -11 247 104 353 200 111 100 211 289 234 438 6 40
15 81 20 90 4 9 5 18 1 20 -11 5 2 153 13 150 6 -2 9 -10 7 -18 -4 -17 10 -18
26 -2 13 13 17 78 4 78 -15 0 -52 41 -46 51 4 6 11 6 20 -2 7 -6 11 -15 8 -20z
m-1210 0 c-3 -5 -10 -7 -15 -3 -5 3 -7 10 -3 15 3 5 10 7 15 3 5 -3 7 -10 3
-15z m2050 -1 c8 -37 26 -226 26 -265 0 -42 -9 -40 -14 3 -3 16 -9 41 -14 55
-6 15 -9 43 -7 63 2 20 0 36 -3 36 -4 0 -8 29 -9 65 -1 63 12 89 21 43z m-867
-29 c4 -50 -37 -92 -51 -51 -3 9 -9 23 -12 30 -4 8 4 12 23 12 25 1 26 2 9 11
-15 9 -16 13 -5 20 21 13 34 5 36 -22z m-1161 6 c-4 -10 1 -15 14 -15 11 0 20
-4 20 -10 0 -5 -5 -10 -11 -10 -5 0 -7 -5 -4 -10 4 -6 11 -8 16 -5 16 10 10
-5 -11 -27 -11 -12 -20 -16 -20 -10 0 7 -9 12 -20 12 -12 0 -20 7 -20 18 0 14
2 15 10 2 8 -13 10 -12 10 3 0 10 5 15 10 12 16 -10 12 11 -5 25 -15 13 -12
30 7 30 5 0 8 -7 4 -15z m1781 -62 c-2 -16 -4 -5 -4 22 0 28 2 40 4 28 2 -13
2 -35 0 -50z m-580 33 c-5 -16 -27 -19 -27 -3 0 7 7 14 15 14 9 0 14 -5 12
-11z m-1265 -38 c-7 -7 -12 -8 -12 -2 0 14 12 26 19 19 2 -3 -1 -11 -7 -17z
m1765 0 c-3 -8 -6 -5 -6 6 -1 11 2 17 5 13 3 -3 4 -12 1 -19z m-597 2 c0 -5
-7 -10 -15 -10 -8 0 -15 5 -15 10 0 6 7 10 15 10 8 0 15 -4 15 -10z m-995 -39
c-3 -6 -11 -8 -17 -5 -6 4 -5 9 3 15 16 10 23 4 14 -10z m975 9 c0 -5 -2 -10
-4 -10 -3 0 -8 5 -11 10 -3 6 -1 10 4 10 6 0 11 -4 11 -10z m60 -40 c0 -42 -5
-46 -30 -30 -12 8 -12 10 5 10 20 1 20 1 1 15 -12 9 -15 15 -7 15 8 0 11 6 7
15 -3 9 0 15 9 15 11 0 15 -11 15 -40z m648 8 c3 -37 -2 -35 -12 5 -3 15 -3
27 2 27 4 0 9 -14 10 -32z m-1723 12 c-3 -5 -10 -10 -16 -10 -5 0 -9 5 -9 10
0 6 7 10 16 10 8 0 12 -4 9 -10z m950 -8 c-3 -3 -11 0 -18 7 -9 10 -8 11 6 5
10 -3 15 -9 12 -12z m-890 -2 c-3 -5 -11 -10 -16 -10 -6 0 -7 5 -4 10 3 6 11
10 16 10 6 0 7 -4 4 -10z m949 1 c4 -5 1 -22 -5 -38 -6 -15 -13 -22 -16 -15
-3 6 -11 12 -19 12 -9 0 -12 5 -9 10 3 6 16 10 28 10 20 0 20 0 1 15 -17 13
-17 14 -2 15 9 0 19 -4 22 -9z m-994 -21 c-20 -13 -33 -13 -25 0 3 6 14 10 23
10 15 0 15 -2 2 -10z m-55 -20 c-19 -7 -19 -7 0 -19 20 -12 20 -12 0 -9 -12 2
-21 12 -23 25 -3 18 1 20 19 16 21 -6 21 -7 4 -13z m70 -10 c-3 -5 -13 -10
-21 -10 -8 0 -12 5 -9 10 3 6 13 10 21 10 8 0 12 -4 9 -10z m-8 -26 c-3 -3
-12 -4 -19 -1 -8 3 -5 6 6 6 11 1 17 -2 13 -5z m953 -9 c0 -8 -2 -15 -4 -15
-2 0 -6 7 -10 15 -3 8 -1 15 4 15 6 0 10 -7 10 -15z m90 -6 c0 -6 -4 -7 -10
-4 -5 3 -10 11 -10 16 0 6 5 7 10 4 6 -3 10 -11 10 -16z m401 -55 c23 -49 20
-118 -7 -128 -17 -6 -18 -1 -3 26 7 14 8 23 1 30 -6 6 -8 18 -4 27 5 14 4 14
-11 2 -9 -7 -17 -10 -17 -5 0 11 -20 -18 -20 -28 0 -5 5 -8 11 -8 5 0 7 6 4
13 -4 6 0 3 9 -7 8 -10 13 -23 9 -29 -3 -5 -9 -4 -13 3 -11 19 -23 -44 -22
-117 1 -58 0 -63 -23 -69 -13 -3 -26 -13 -30 -22 -5 -14 -7 -14 -15 -2 -6 9
-10 10 -10 3 0 -6 4 -15 10 -18 12 -7 -10 -45 -26 -45 -6 0 -17 -7 -24 -15 -7
-8 -23 -15 -36 -15 -15 0 -24 6 -24 15 0 8 5 15 12 15 6 0 8 3 4 7 -4 4 -16
-3 -26 -17 -21 -28 -41 -19 -22 10 15 24 5 26 -20 3 -16 -14 -18 -14 -18 -1 0
21 52 41 89 36 17 -2 28 -1 25 4 -3 4 2 11 10 14 9 3 13 10 10 15 -3 5 1 11 8
14 10 4 13 35 13 121 0 100 2 117 18 129 12 8 14 16 8 20 -17 10 -13 50 7 68
24 21 64 26 84 9 10 -8 27 -34 39 -58z m-1819 48 c-9 -6 -5 -12 14 -21 24 -11
26 -10 14 3 -7 10 -8 16 -2 16 13 0 27 -38 23 -62 -1 -9 3 -19 9 -23 26 -16 0
-225 -29 -225 -9 -1 0 -8 19 -17 19 -8 29 -17 22 -20 -22 -8 -2 -22 26 -17 34
6 78 -26 69 -50 -8 -20 -27 -21 -27 -1 0 8 -9 19 -19 25 -30 16 -36 12 -11 -8
21 -17 21 -19 5 -35 -30 -30 -75 -15 -75 25 0 10 -6 18 -14 18 -16 0 -66 72
-66 95 0 9 4 14 9 11 5 -3 14 9 20 26 10 28 9 35 -6 45 -13 10 -14 13 -2 13
10 1 9 3 -4 11 -9 5 -22 7 -28 4 -13 -9 -49 23 -49 44 0 9 6 28 14 42 7 14 16
37 19 51 9 35 33 58 60 58 15 0 18 -3 9 -8z m-465 -34 c-3 -8 -6 -5 -6 6 -1
11 2 17 5 13 3 -3 4 -12 1 -19z m1703 -411 c0 -4 -18 -27 -40 -51 -75 -81
-322 -233 -362 -223 -59 16 -247 137 -317 205 l-75 73 199 199 200 200 197
-197 c109 -109 198 -201 198 -206z m-1591 230 c8 -33 8 -37 -5 -26 -8 6 -14
27 -13 48 1 39 2 37 18 -22z m298 -52 c-3 -35 -1 -55 9 -66 13 -15 12 -16 -11
-12 -18 4 -25 12 -25 28 0 29 -25 55 -51 55 -18 0 -18 1 3 44 l21 44 30 -21
c27 -20 29 -26 24 -72z m1839 59 c-4 -14 -9 -24 -12 -21 -3 2 -2 17 2 31 3 15
9 25 11 22 3 -3 2 -17 -1 -32z m66 -11 c7 -16 18 -35 25 -44 12 -14 10 -17
-18 -23 -39 -8 -69 -32 -69 -57 0 -10 -9 -20 -19 -24 -11 -3 -28 -24 -39 -45
-19 -39 -19 -40 0 -40 11 0 16 5 13 10 -8 13 14 42 25 35 12 -7 40 35 40 60 0
31 19 45 60 44 l35 0 -35 -12 c-31 -10 -36 -17 -40 -52 -7 -53 -16 -65 -48
-66 -23 -2 -24 -2 -5 -6 31 -6 63 14 64 40 1 18 2 18 6 4 9 -34 -23 -65 -73
-73 -29 -4 -50 -2 -57 5 -6 6 -20 11 -31 11 -18 1 -19 2 -6 13 8 7 21 24 29
39 8 16 25 35 38 43 13 9 23 25 23 38 0 13 7 47 15 75 18 61 47 71 67 25z
m-1958 -72 c10 -10 16 -27 14 -37 -2 -12 4 -20 17 -22 25 -5 36 -22 29 -45 -4
-14 -1 -17 13 -15 11 2 17 -2 15 -11 -1 -7 3 -20 10 -28 11 -13 5 -14 -47 -8
-74 9 -75 10 -74 43 0 26 1 26 9 5 5 -13 18 -23 29 -23 11 0 28 -3 38 -6 12
-5 15 -4 8 4 -5 6 -21 12 -34 14 -19 2 -24 10 -27 41 -5 58 -13 77 -34 77 -20
0 -33 13 -23 24 12 12 40 6 57 -13z m-24 -40 c7 -14 6 -29 -5 -55 -21 -51 -7
-76 42 -76 48 0 35 -14 -50 -55 -50 -24 -62 -35 -61 -52 1 -30 -2 -29 -21 7
-10 20 -26 33 -45 37 -27 5 -30 10 -30 41 0 38 34 99 61 107 8 3 28 19 44 35
33 35 50 38 65 11z m2066 -32 c14 -23 39 -46 54 -52 47 -18 55 -85 14 -108
-14 -7 -37 -26 -50 -42 -21 -25 -24 -26 -24 -9 0 39 -13 52 -66 68 -30 8 -54
18 -54 21 0 3 11 14 24 24 31 24 37 51 20 85 -17 32 -4 54 32 54 17 0 31 -12
50 -41z m-1748 -34 c-3 -3 -9 2 -12 12 -6 14 -5 15 5 6 7 -7 10 -15 7 -18z
m-150 -45 c8 -13 9 -20 1 -20 -13 0 -39 25 -39 39 0 15 24 3 38 -19z m169 8
c-3 -8 -6 -5 -6 6 -1 11 2 17 5 13 3 -3 4 -12 1 -19z m-30 -20 c-3 -8 -6 -5
-6 6 -1 11 2 17 5 13 3 -3 4 -12 1 -19z m207 16 c24 -9 20 -44 -4 -44 -28 0
-25 -20 11 -92 26 -52 54 -156 44 -166 -10 -10 -64 31 -67 50 -2 14 -16 29
-36 40 -29 14 -31 17 -16 26 15 9 15 11 -7 25 -13 8 -35 18 -48 22 -20 6 -23
4 -18 -9 4 -9 2 -16 -4 -16 -6 0 -13 9 -16 20 -8 29 -35 21 -51 -13 -11 -23
-16 -26 -28 -16 -8 7 -14 19 -12 28 1 9 -1 22 -6 29 -5 9 -1 27 10 48 20 36
34 44 34 18 0 -13 5 -12 27 6 30 23 64 21 97 -8 13 -12 20 -14 23 -5 5 13 42
63 48 63 2 0 10 -3 19 -6z m1008 -11 c10 -9 18 -24 18 -35 0 -22 4 -22 35 -2
14 9 31 14 40 11 8 -4 17 -2 20 3 4 6 1 10 -5 10 -6 0 -8 5 -4 11 5 8 10 7 16
-4 5 -10 15 -14 26 -10 14 5 15 3 5 -8 -18 -19 -16 -29 6 -29 15 0 18 5 14 23
-5 22 -5 22 10 2 18 -22 22 -55 8 -55 -5 0 -8 -14 -7 -32 1 -24 -4 -33 -18
-36 -12 -3 -16 0 -11 7 9 16 -13 41 -35 41 -10 0 -20 -9 -23 -20 -4 -15 -14
-20 -40 -20 -44 0 -67 -8 -67 -25 0 -8 8 -11 20 -8 23 6 27 -12 5 -21 -9 -3
-22 -21 -30 -40 -14 -33 -40 -56 -64 -56 -23 0 -11 94 19 158 33 70 40 118 15
109 -22 -9 -30 14 -10 30 24 17 35 17 57 -4z m-1252 -13 c0 -5 -2 -10 -4 -10
-3 0 -8 5 -11 10 -3 6 -1 10 4 10 6 0 11 -4 11 -10z m1554 -16 c9 -23 -5 -46
-23 -38 -9 3 -26 9 -38 11 -14 3 -23 13 -23 23 0 30 73 33 84 4z m-1576 -3 c2
-6 -7 -11 -20 -11 -13 0 -29 -5 -36 -12 -9 -9 -16 -8 -29 5 -16 15 -15 17 8
26 30 11 72 7 77 -8z m-115 -13 c9 -7 19 -26 22 -43 5 -27 2 -32 -37 -55 -24
-14 -46 -26 -49 -28 -4 -2 -9 8 -13 22 -8 33 -39 49 -83 44 -32 -4 -33 -3 -17
9 11 8 32 13 49 11 19 -2 30 2 30 10 0 13 23 32 38 32 5 0 5 -6 2 -12 -3 -7 0
-5 7 5 15 20 28 21 51 5z m1877 -32 c29 -13 31 -15 12 -16 -19 0 -56 -14 -70
-26 -2 -1 -10 -20 -17 -41 -12 -31 -14 -34 -15 -13 0 18 -3 21 -9 12 -6 -11
-10 -10 -16 5 -5 10 -8 21 -7 25 1 4 -4 5 -12 2 -14 -6 -39 20 -43 44 -1 9 5
24 13 33 14 15 21 16 72 4 31 -8 73 -21 92 -29z m-1766 -22 c-1 -53 23 -91 49
-81 10 4 17 15 17 26 0 27 17 35 28 15 8 -14 0 -24 -40 -51 l-49 -34 -40 35
c-21 20 -44 36 -51 36 -9 0 -9 3 0 12 7 7 12 20 12 30 0 23 35 58 58 58 14 0
17 -9 16 -46z m1541 24 c14 -6 25 -17 25 -24 0 -6 8 -15 17 -18 14 -6 10 -12
-20 -37 -20 -16 -39 -38 -42 -49 -8 -25 -33 -25 -65 0 -36 28 -69 25 -128 -16
-63 -42 -79 -38 -31 7 32 30 33 32 14 45 -17 13 -15 14 24 14 34 0 44 4 48 20
8 29 33 25 33 -5 0 -17 5 -25 18 -25 23 0 42 19 42 42 0 20 21 58 32 58 4 0
19 -5 33 -12z m-1749 -61 c5 -15 -72 -137 -86 -137 -5 0 -13 7 -18 16 -8 14
-12 13 -35 -10 -34 -34 -47 -33 -47 3 0 24 -3 28 -23 24 -18 -4 -23 -1 -22 14
5 46 35 74 35 33 0 -21 15 -27 25 -10 3 6 15 10 25 10 10 0 21 8 24 18 3 10
25 25 48 34 55 20 67 21 74 5z m-300 -22 c9 -14 23 -25 31 -25 8 0 13 -6 10
-12 -4 -14 -41 -12 -69 3 -22 12 -24 59 -3 59 8 0 22 -11 31 -25z m683 6 c12
-7 12 -13 3 -24 -14 -16 -6 -27 18 -27 9 0 25 -9 35 -20 31 -34 -5 -23 -65 20
-32 24 -48 40 -37 40 9 0 17 5 17 10 0 12 10 13 29 1z m1467 -16 c8 -13 14
-28 11 -32 -3 -4 11 -9 31 -11 52 -3 58 -16 19 -39 -19 -11 -49 -42 -67 -67
-20 -27 -39 -45 -47 -42 -7 3 -12 0 -10 -6 1 -7 -5 -13 -14 -15 -22 -5 -32 65
-13 88 19 22 17 36 -6 49 -27 15 -25 23 14 64 39 42 60 45 82 11z m-1740 -3
c3 -23 4 -24 17 -13 11 8 19 5 37 -14 l23 -25 -26 -24 c-28 -26 -28 -53 0 -69
16 -10 17 -67 1 -67 -18 0 -69 39 -102 77 -21 25 -26 36 -17 47 6 7 8 16 4 19
-6 7 13 11 31 8 5 -1 4 4 -2 12 -12 14 -34 15 -65 2 -14 -6 -16 -10 -6 -16 8
-4 20 -3 29 4 13 10 13 10 3 -4 -7 -9 -9 -20 -5 -24 4 -4 -7 0 -25 10 -18 11
-29 24 -26 32 3 7 8 11 13 8 4 -2 25 9 46 25 39 30 68 35 70 12z m-336 -2 c0
-5 -2 -10 -4 -10 -3 0 -8 5 -11 10 -3 6 -1 10 4 10 6 0 11 -4 11 -10z m60 1
c0 -6 -4 -13 -10 -16 -5 -3 -10 1 -10 9 0 9 5 16 10 16 6 0 10 -4 10 -9z
m2227 -13 c-3 -8 -6 -5 -6 6 -1 11 2 17 5 13 3 -3 4 -12 1 -19z m-1730 -25
c12 -5 14 -3 8 7 -4 7 20 -7 55 -30 257 -175 605 -229 878 -136 84 29 180 77
256 128 32 22 55 35 52 29 -9 -14 7 -14 20 -1 8 8 19 7 39 0 27 -10 27 -11 9
-25 -18 -14 -17 -14 9 -5 19 7 26 7 22 0 -3 -6 2 -10 12 -11 11 0 13 -3 5 -6
-6 -2 -9 -10 -5 -16 3 -7 3 -9 -2 -5 -4 4 -18 -6 -32 -22 -28 -34 -178 -129
-261 -166 -140 -62 -354 -102 -482 -89 -233 22 -418 90 -645 234 -78 50 -105
61 -105 41 0 -12 52 -38 66 -33 12 4 46 -41 38 -50 -3 -3 -15 5 -28 17 -12 11
-37 29 -54 38 -36 19 -43 48 -11 48 11 0 17 5 14 10 -7 11 8 14 19 3 4 -4 22
-8 41 -9 31 -1 33 1 17 13 -16 14 -16 14 3 9 19 -6 19 -5 2 8 -18 14 -18 15 0
25 10 6 24 8 31 6 6 -3 19 -8 29 -12z m1423 -57 c0 -8 -5 -18 -12 -22 -7 -5
-9 -2 -5 9 4 10 0 17 -11 20 -12 3 -11 5 6 6 13 1 22 -5 22 -13z m-405 -29
c28 -14 28 -15 8 -26 -12 -6 -34 -8 -50 -5 -17 3 -45 -1 -67 -10 -46 -19 -73
-20 -79 -3 -2 7 -14 0 -30 -19 -26 -31 -67 -51 -67 -33 0 18 62 78 103 99 48
24 133 23 182 -3z m-590 -7 c22 -11 56 -36 75 -55 l34 -35 -30 0 c-16 0 -42 7
-58 15 -15 8 -33 15 -40 15 -15 1 -56 36 -56 49 0 14 -55 14 -81 1 -13 -7 -25
-8 -37 -1 -14 8 -15 10 -2 15 8 2 22 7 30 9 38 13 126 6 165 -13z m-105 -18
c0 -5 12 -14 26 -21 42 -19 22 -22 -29 -5 -26 9 -44 20 -41 25 7 11 44 12 44
1z m1028 -25 c2 -12 -1 -15 -12 -11 -19 7 -22 38 -3 32 6 -3 13 -12 15 -21z
m-701 -17 l6 -31 21 21 c29 26 36 25 36 -5 0 -25 -1 -25 -79 -25 -81 0 -96 6
-85 34 5 12 10 13 25 6 14 -8 20 -6 29 10 16 30 40 25 47 -10z m318 21 c-13
-12 -167 -53 -174 -46 -2 3 2 13 11 21 12 12 21 13 33 6 13 -7 33 -4 69 9 58
21 75 23 61 10z m-1067 -38 c18 -39 35 -45 75 -28 14 6 20 2 24 -14 5 -22 37
-29 48 -11 8 12 25 13 45 0 12 -7 11 -13 -10 -34 l-23 -26 35 0 c54 0 68 -9
68 -41 0 -24 -4 -29 -25 -29 -15 0 -25 6 -25 14 0 9 -19 16 -57 21 -113 14
-180 65 -190 145 -7 52 11 53 35 3z m1428 11 c18 -14 17 -15 -16 -10 -32 6
-37 3 -54 -28 -17 -31 -21 -33 -43 -23 -23 10 -23 11 29 44 62 38 59 37 84 17z
m-1321 -16 c34 -23 40 -38 17 -46 -7 -2 -12 3 -12 11 0 8 -7 20 -15 27 -13 10
-19 10 -35 -5 -26 -23 -47 -10 -24 16 22 24 27 24 69 -3z m812 -193 c-9 -8
-17 -20 -20 -27 -3 -10 -10 -8 -26 6 -25 23 -14 36 32 36 25 0 27 -2 14 -15z
m-385 -15 c7 -11 22 -20 34 -20 12 0 33 9 47 20 21 17 40 20 117 20 84 0 95
-2 122 -25 33 -28 58 -32 58 -10 0 38 81 41 101 4 8 -16 4 -25 -20 -49 -33
-34 -87 -40 -131 -15 -35 20 -38 19 -42 -17 -2 -22 -9 -34 -21 -36 -11 -2 -27
-12 -38 -23 -26 -26 -45 -24 -65 6 -12 19 -22 24 -37 19 -18 -6 -19 -3 -15 34
l6 40 -42 -19 c-55 -25 -116 -25 -150 2 -32 25 -33 53 -4 73 31 22 65 20 80
-4z"/>
<path d="M2280 4904 c0 -8 5 -12 10 -9 6 4 8 11 5 16 -9 14 -15 11 -15 -7z"/>
<path d="M2033 4363 c-20 -8 -15 -30 7 -36 11 -3 20 -1 20 4 0 5 -8 9 -17 10
-13 0 -14 2 -4 6 8 3 21 -3 28 -13 14 -18 14 -18 11 6 -3 24 -21 34 -45 23z"/>
<path d="M1980 4105 c0 -10 39 -23 89 -30 38 -5 52 -4 47 4 -4 6 -25 11 -46
11 -21 0 -50 4 -64 10 -14 5 -26 8 -26 5z"/>
<path d="M1920 4080 c0 -14 101 -32 160 -28 l55 4 -66 2 c-37 1 -85 9 -108 17
-22 8 -41 10 -41 5z"/>
<path d="M1990 3990 c8 -5 29 -9 45 -9 29 1 29 1 5 9 -14 4 -34 8 -45 9 -16 1
-17 -1 -5 -9z"/>
<path d="M2104 3974 c-7 -3 -41 -9 -75 -14 l-64 -9 68 4 c37 2 75 9 85 14 17
10 7 14 -14 5z"/>
<path d="M1886 3931 c-12 -18 30 -75 72 -99 55 -30 77 -28 26 3 -23 14 -53 44
-66 66 -16 27 -28 38 -32 30z"/>
<path d="M2115 3905 c-16 -8 -23 -14 -15 -14 8 0 26 6 40 14 32 18 15 18 -25
0z"/>
<path d="M1568 4333 c12 -2 30 -2 40 0 9 3 -1 5 -23 4 -22 0 -30 -2 -17 -4z"/>
<path d="M1668 4283 c7 -3 16 -2 19 1 4 3 -2 6 -13 5 -11 0 -14 -3 -6 -6z"/>
<path d="M1629 4263 c-13 -16 -12 -17 4 -4 9 7 17 15 17 17 0 8 -8 3 -21 -13z"/>
<path d="M1666 4245 c-9 -26 -7 -32 5 -12 6 10 9 21 6 23 -2 3 -7 -2 -11 -11z"/>
<path d="M3486 4282 c-2 -4 2 -18 10 -32 7 -14 13 -21 14 -17 0 5 -5 18 -11
29 -10 18 -9 20 5 15 10 -4 15 -3 11 3 -7 12 -22 13 -29 2z"/>
<path d="M2530 4133 c0 -10 4 -14 8 -8 4 6 11 13 16 18 5 4 2 7 -7 7 -10 0
-17 -8 -17 -17z"/>
<path d="M2691 3954 c0 -11 3 -14 6 -6 3 7 2 16 -1 19 -3 4 -6 -2 -5 -13z"/>
<path d="M2290 3935 c0 -3 17 -36 39 -74 21 -37 54 -105 72 -151 19 -46 36
-75 37 -66 2 10 -4 35 -12 57 -9 22 -13 45 -10 51 5 7 2 8 -6 3 -9 -6 -10 -2
-5 15 5 17 4 21 -6 15 -9 -6 -11 -3 -6 9 4 9 3 15 -1 12 -5 -3 -20 20 -35 50
-33 66 -27 72 7 7 14 -27 25 -43 25 -38 0 6 -12 33 -27 60 -18 34 -34 51 -49
53 -13 2 -23 1 -23 -3z"/>
<path d="M2430 3870 c0 -5 5 -10 10 -10 6 0 10 5 10 10 0 6 -4 10 -10 10 -5 0
-10 -4 -10 -10z"/>
<path d="M2485 3861 c-3 -5 -1 -12 5 -16 5 -3 10 1 10 9 0 18 -6 21 -15 7z"/>
<path d="M2450 3834 c0 -8 5 -12 10 -9 6 3 10 10 10 16 0 5 -4 9 -10 9 -5 0
-10 -7 -10 -16z"/>
<path d="M2420 3820 c0 -5 5 -10 10 -10 6 0 10 5 10 10 0 6 -4 10 -10 10 -5 0
-10 -4 -10 -10z"/>
<path d="M2470 3810 c0 -5 5 -10 11 -10 5 0 7 5 4 10 -3 6 -8 10 -11 10 -2 0
-4 -4 -4 -10z"/>
<path d="M1460 3761 c0 -17 5 -33 12 -37 8 -5 9 -2 5 11 -5 11 -1 22 10 31 17
13 17 14 -1 7 -13 -4 -17 -3 -12 5 4 7 2 12 -3 12 -6 0 -11 -13 -11 -29z"/>
<path d="M1494 3719 c-5 -9 -2 -10 9 -6 9 3 18 2 21 -4 2 -5 3 -4 2 3 -3 17
-23 21 -32 7z"/>
<path d="M1508 3662 c-12 -16 -11 -16 6 -2 18 14 19 13 13 -2 -3 -10 -2 -18 2
-18 5 0 11 6 14 14 8 21 -19 27 -35 8z"/>
<path d="M1423 3654 c-3 -8 -1 -20 6 -27 6 -6 11 -21 11 -32 0 -12 10 -31 23
-43 25 -24 37 -28 37 -12 0 6 -7 10 -15 10 -8 0 -15 7 -15 16 0 9 -5 12 -12 8
-8 -5 -9 0 -5 16 3 14 0 28 -9 38 -8 8 -13 21 -10 28 3 8 3 14 0 14 -2 0 -7
-7 -11 -16z"/>
<path d="M1396 3586 c-4 -15 -5 -31 -1 -34 3 -3 5 3 6 14 0 14 3 12 11 -8 5
-16 14 -28 19 -28 5 0 3 12 -4 28 -8 15 -16 34 -19 42 -3 9 -7 4 -12 -14z"/>
<path d="M1700 3500 c-12 -8 -10 -10 8 -10 13 0 20 4 17 10 -7 12 -6 12 -25 0z"/>
<path d="M1635 3411 c3 -6 13 -11 22 -11 9 0 30 -16 48 -34 29 -31 36 -34 61
-26 l29 8 -28 1 c-16 1 -36 10 -45 21 -18 21 -98 58 -87 41z"/>
<path d="M1736 3377 c3 -10 9 -15 12 -12 3 3 0 11 -7 18 -10 9 -11 8 -5 -6z"/>
<path d="M1595 3310 c3 -5 11 -10 16 -10 6 0 7 5 4 10 -3 6 -11 10 -16 10 -6
0 -7 -4 -4 -10z"/>
<path d="M1719 3218 c14 -19 32 -15 30 5 0 8 -2 8 -6 -1 -4 -10 -8 -10 -21 0
-15 12 -16 11 -3 -4z"/>
<path d="M2370 3649 c0 -5 5 -7 10 -4 6 3 10 8 10 11 0 2 -4 4 -10 4 -5 0 -10
-5 -10 -11z"/>
<path d="M2555 3520 c3 -5 8 -10 11 -10 2 0 4 5 4 10 0 6 -5 10 -11 10 -5 0
-7 -4 -4 -10z"/>
<path d="M3160 3410 c-8 -5 -10 -10 -5 -10 6 0 17 5 25 10 8 5 11 10 5 10 -5
0 -17 -5 -25 -10z"/>
<path d="M2588 3459 c-35 -38 -38 -51 -20 -83 2 -4 8 -2 13 5 5 9 9 -20 9 -72
0 -73 3 -89 20 -104 19 -17 21 -17 40 0 17 15 20 31 20 104 0 48 4 80 8 73 6
-9 12 -6 20 13 11 23 8 29 -28 65 -22 22 -41 40 -42 40 -2 0 -20 -18 -40 -41z
m59 1 c3 -10 14 -22 24 -25 23 -7 25 -25 4 -25 -12 0 -15 -16 -15 -83 0 -59
-4 -89 -15 -103 -15 -19 -15 -19 -30 0 -11 14 -15 44 -15 103 0 69 -3 83 -16
83 -9 0 -14 6 -11 13 2 6 10 11 16 9 6 -1 16 9 21 23 11 30 30 33 37 5z"/>
<path d="M2620 3345 c0 -57 4 -95 10 -95 6 0 10 38 10 95 0 57 -4 95 -10 95
-6 0 -10 -38 -10 -95z"/>
<path d="M2350 3331 c0 -47 4 -81 10 -81 6 0 10 31 10 74 0 41 -4 78 -10 81
-6 4 -10 -23 -10 -74z"/>
<path d="M2188 3325 c-29 -35 -38 -43 -49 -47 -8 -3 -10 -14 -5 -32 5 -19 12
-26 21 -22 12 4 15 -9 15 -79 0 -63 4 -87 16 -99 21 -21 30 -20 48 6 12 16 16
47 16 108 0 55 3 80 9 71 8 -12 11 -9 16 11 8 30 0 48 -18 48 -7 0 -17 10 -22
22 -13 28 -30 33 -47 13z m37 -24 c3 -10 15 -21 25 -24 26 -7 26 -23 0 -30
-18 -5 -20 -14 -20 -96 0 -75 -3 -93 -16 -98 -26 -10 -34 16 -34 110 0 71 -3
87 -15 87 -8 0 -15 7 -15 15 0 8 6 15 14 15 8 0 18 9 21 20 8 25 32 26 40 1z"/>
<path d="M2200 3185 c0 -57 4 -95 10 -95 6 0 10 38 10 95 0 57 -4 95 -10 95
-6 0 -10 -38 -10 -95z"/>
<path d="M2738 3299 c-32 -35 -36 -44 -27 -61 9 -17 13 -18 20 -7 5 9 9 -21 9
-77 0 -78 3 -93 20 -109 19 -17 21 -17 40 0 17 15 20 31 21 109 0 50 3 85 6
78 7 -17 23 -5 23 19 0 17 -58 89 -71 89 -2 0 -21 -18 -41 -41z m59 2 c3 -11
13 -21 24 -24 22 -6 26 -27 4 -27 -12 0 -15 -16 -15 -83 0 -59 -4 -89 -15
-103 -15 -19 -15 -19 -30 0 -11 14 -15 44 -15 103 0 67 -3 83 -15 83 -22 0
-18 21 4 27 11 3 21 13 24 24 3 10 10 19 17 19 7 0 14 -9 17 -19z"/>
<path d="M2770 3185 c0 -57 4 -95 10 -95 6 0 10 38 10 95 0 57 -4 95 -10 95
-6 0 -10 -38 -10 -95z"/>
<path d="M2050 3346 c0 -57 4 -96 10 -96 6 0 10 36 10 89 0 50 -4 93 -10 96
-6 4 -10 -28 -10 -89z"/>
<path d="M2920 3345 c0 -57 4 -95 10 -95 6 0 10 38 10 95 0 57 -4 95 -10 95
-6 0 -10 -38 -10 -95z"/>
<path d="M1371 3254 c0 -11 3 -14 6 -6 3 7 2 16 -1 19 -3 4 -6 -2 -5 -13z"/>
<path d="M3751 3114 c-2 -48 11 -124 21 -124 4 0 6 11 2 25 -3 14 -10 49 -14
78 -5 35 -8 42 -9 21z"/>
<path d="M3425 3241 c-3 -5 -1 -12 5 -16 5 -3 10 1 10 9 0 18 -6 21 -15 7z"/>
<path d="M3320 3148 c0 -10 4 -18 8 -18 4 0 16 -14 26 -31 14 -24 21 -28 27
-18 5 8 8 21 8 29 0 10 -3 8 -9 -5 -8 -19 -9 -18 -9 4 -1 13 -4 22 -7 18 -4
-3 -15 4 -25 16 -16 19 -18 20 -19 5z"/>
<path d="M3401 3053 c9 -16 16 -19 21 -10 6 9 8 8 8 -2 0 -8 3 -12 6 -8 3 3 1
14 -5 24 -7 12 -10 13 -11 4 0 -11 -3 -11 -17 0 -15 13 -15 12 -2 -8z"/>
<path d="M3475 3020 c-3 -5 -1 -10 4 -10 6 0 11 5 11 10 0 6 -2 10 -4 10 -3 0
-8 -4 -11 -10z"/>
<path d="M3425 2990 c10 -11 20 -18 23 -16 5 6 -23 36 -34 36 -4 0 1 -9 11
-20z"/>
<path d="M3575 2990 c3 -5 8 -10 11 -10 2 0 4 5 4 10 0 6 -5 10 -11 10 -5 0
-7 -4 -4 -10z"/>
<path d="M3635 2950 c3 -5 11 -10 16 -10 6 0 7 5 4 10 -3 6 -11 10 -16 10 -6
0 -7 -4 -4 -10z"/>
<path d="M3656 2920 c5 -8 9 -18 9 -22 0 -3 3 -9 7 -13 3 -4 5 0 4 9 -1 9 -8
22 -16 29 -10 10 -11 9 -4 -3z"/>
<path d="M3557 2859 c4 -13 8 -18 11 -10 2 7 -1 18 -6 23 -8 8 -9 4 -5 -13z"/>
<path d="M3680 2849 c0 -13 5 -31 10 -39 7 -11 8 -5 4 20 -8 43 -14 51 -14 19z"/>
<path d="M3522 2815 c0 -16 2 -22 5 -12 2 9 2 23 0 30 -3 6 -5 -1 -5 -18z"/>
<path d="M3692 2765 c0 -16 2 -22 5 -12 2 9 2 23 0 30 -3 6 -5 -1 -5 -18z"/>
<path d="M3520 2726 c0 -21 48 -89 72 -102 16 -8 28 -10 28 -5 0 5 -10 11 -23
15 -14 3 -34 24 -50 53 -15 27 -27 44 -27 39z"/>
<path d="M3640 2610 c-8 -5 -12 -11 -9 -14 2 -3 11 -1 19 4 8 5 12 11 9 14 -2
3 -11 1 -19 -4z"/>
<path d="M1631 3067 c-13 -21 -12 -21 5 -5 10 10 16 20 13 22 -3 3 -11 -5 -18
-17z"/>
<path d="M1587 3043 c-4 -3 -7 -11 -7 -17 0 -6 5 -5 12 2 6 6 9 14 7 17 -3 3
-9 2 -12 -2z"/>
<path d="M1394 2985 c-16 -12 -16 -14 -3 -15 9 0 22 7 29 15 16 19 0 19 -26 0z"/>
<path d="M1505 2935 c-5 -11 -10 -24 -13 -30 -3 -5 3 -3 13 7 9 9 15 22 12 30
-3 9 -7 7 -12 -7z"/>
<path d="M1313 2875 c-3 -9 -3 -18 -1 -21 3 -3 8 4 11 16 6 23 -1 27 -10 5z"/>
<path d="M1327 2713 c-4 -3 -7 -13 -7 -21 0 -18 13 -7 16 13 2 17 1 18 -9 8z"/>
<path d="M1396 2647 c-4 -18 -4 -18 15 -1 23 21 23 21 5 21 -8 0 -17 -9 -20
-20z"/>
<path d="M1377 2613 c-10 -9 -9 -23 2 -23 5 0 11 7 15 15 5 15 -5 20 -17 8z"/>
<path d="M1260 2459 c0 -5 5 -7 10 -4 6 3 10 8 10 11 0 2 -4 4 -10 4 -5 0 -10
-5 -10 -11z"/>
<path d="M3355 2899 c-4 -6 -4 -13 -1 -16 3 -4 6 -1 6 5 0 6 8 13 18 15 15 4
15 5 0 6 -9 0 -20 -4 -23 -10z"/>
<path d="M2468 2775 c-6 -14 -17 -25 -24 -25 -18 0 -25 -29 -13 -52 9 -17 13
-18 20 -7 5 9 9 -21 9 -77 0 -77 3 -94 19 -108 18 -17 20 -17 40 3 18 18 21
33 21 109 0 56 4 82 9 73 8 -12 11 -9 16 12 6 21 0 33 -28 62 -40 42 -54 44
-69 10z m49 -14 c3 -11 13 -21 24 -24 10 -3 19 -11 19 -18 0 -7 -3 -9 -7 -6
-3 4 -12 2 -20 -4 -9 -8 -13 -38 -13 -100 0 -87 -10 -113 -33 -90 -7 7 -14 53
-17 104 -4 66 -9 91 -17 90 -22 -5 -14 24 7 30 11 3 20 12 20 21 0 23 31 20
37 -3z"/>
<path d="M2490 2645 c0 -57 4 -95 10 -95 6 0 10 38 10 95 0 57 -4 95 -10 95
-6 0 -10 -38 -10 -95z"/>
<path d="M2305 2594 c-16 -19 -31 -37 -33 -39 -2 -2 2 -13 8 -25 10 -18 14
-20 21 -9 5 9 9 -21 9 -77 0 -77 3 -94 19 -108 18 -17 20 -17 40 3 18 18 21
33 21 109 0 56 4 82 9 73 8 -12 11 -9 16 12 6 21 0 33 -28 62 -19 19 -38 35
-43 35 -5 0 -22 -16 -39 -36z m65 -9 c0 -7 9 -15 20 -18 11 -3 20 -11 20 -18
0 -7 -3 -9 -7 -6 -3 4 -12 2 -20 -4 -9 -8 -13 -37 -13 -93 0 -91 -9 -117 -34
-97 -11 10 -16 37 -18 104 -2 67 -6 91 -15 90 -7 -2 -13 4 -13 12 0 8 6 15 13
15 8 0 19 12 26 26 9 21 14 24 26 14 8 -7 15 -18 15 -25z"/>
<path d="M2340 2475 c0 -57 4 -95 10 -95 6 0 10 38 10 95 0 57 -4 95 -10 95
-6 0 -10 -38 -10 -95z"/>
<path d="M2601 2593 c-30 -32 -32 -37 -22 -61 10 -21 14 -23 22 -11 5 9 9 -18
9 -77 0 -79 3 -93 21 -110 21 -19 21 -18 40 5 15 19 19 40 20 110 0 47 3 80 6
73 7 -19 23 -4 23 23 0 14 -8 29 -19 35 -11 5 -23 19 -26 30 -9 29 -35 23 -74
-17z m66 -2 c3 -11 13 -21 24 -24 10 -3 19 -10 19 -17 0 -6 -4 -9 -9 -5 -19
11 -31 -34 -31 -114 0 -84 -12 -109 -37 -76 -8 12 -13 48 -13 102 0 65 -3 85
-15 89 -21 8 -19 21 5 27 11 3 20 12 20 21 0 23 31 20 37 -3z"/>
<path d="M2640 2475 c0 -57 4 -95 10 -95 6 0 10 38 10 95 0 57 -4 95 -10 95
-6 0 -10 -38 -10 -95z"/>
<path d="M1585 2520 c3 -5 8 -10 11 -10 2 0 4 5 4 10 0 6 -5 10 -11 10 -5 0
-7 -4 -4 -10z"/>
<path d="M1680 2130 c0 -6 -5 -8 -12 -4 -6 4 -8 3 -5 -4 8 -12 31 -11 35 3 2
5 -1 11 -7 13 -6 2 -11 -1 -11 -8z"/>
<path d="M1840 2246 c0 -2 7 -7 16 -10 8 -3 12 -2 9 4 -6 10 -25 14 -25 6z"/>
<path d="M1870 2206 c0 -9 7 -16 16 -16 17 0 14 22 -4 28 -7 2 -12 -3 -12 -12z"/>
<path d="M3140 2196 c0 -9 7 -16 16 -16 17 0 14 22 -4 28 -7 2 -12 -3 -12 -12z"/>
<path d="M1916 2187 c-22 -16 -18 -55 6 -71 19 -12 49 7 33 21 -4 5 -10 2 -12
-4 -3 -7 -8 -13 -13 -13 -14 0 -21 32 -9 46 13 16 49 19 49 4 0 -5 6 -10 13
-10 12 1 -29 40 -42 40 -4 0 -15 -6 -25 -13z"/>
<path d="M3072 2183 c-10 -10 -25 -19 -33 -21 -31 -7 -43 -30 -31 -57 12 -26
54 -35 67 -15 3 6 -1 7 -10 4 -18 -7 -45 12 -45 33 0 7 10 18 23 23 18 7 26 4
43 -16 19 -23 54 -25 54 -3 0 4 -6 6 -14 3 -8 -3 -17 -1 -21 5 -3 6 -1 11 4
11 6 0 11 5 11 11 0 5 -4 7 -10 4 -17 -11 -32 5 -19 21 16 20 3 17 -19 -3z"/>
<path d="M3205 2190 c-3 -6 1 -7 9 -4 18 7 21 14 7 14 -6 0 -13 -4 -16 -10z"/>
<path d="M1750 2186 c0 -2 7 -7 16 -10 8 -3 12 -2 9 4 -6 10 -25 14 -25 6z"/>
<path d="M1978 2125 c-8 -19 -8 -28 2 -40 32 -38 94 1 70 45 -16 29 -58 26
-72 -5z m58 0 c7 -18 -12 -45 -32 -45 -17 0 -18 32 -2 48 16 16 27 15 34 -3z"/>
<path d="M2061 2084 c-11 -30 -11 -38 0 -45 38 -24 88 7 73 44 -4 11 -44 37
-57 37 -2 0 -9 -16 -16 -36z m54 -9 c0 -18 -30 -44 -40 -34 -3 4 -1 18 5 33
11 30 35 31 35 1z"/>
<path d="M2950 2070 c0 -22 4 -40 10 -40 5 0 7 7 3 16 -5 14 -2 16 20 10 33
-8 34 4 4 32 -32 30 -37 28 -37 -18z"/>
<path d="M2871 2081 c-11 -7 -11 -15 -1 -45 12 -39 36 -52 25 -13 -6 18 -5 20
6 10 7 -7 20 -13 29 -13 13 1 13 2 -1 13 -9 7 -18 21 -20 31 -5 23 -19 29 -38
17z m29 -15 c0 -3 -4 -8 -10 -11 -5 -3 -10 -1 -10 4 0 6 5 11 10 11 6 0 10 -2
10 -4z"/>
<path d="M2784 2046 c-3 -8 -4 -25 -2 -38 2 -19 9 -23 38 -23 36 0 50 23 21
33 -10 3 -12 0 -8 -12 5 -11 1 -16 -13 -16 -20 0 -38 37 -23 50 4 4 17 10 28
13 15 3 13 5 -8 6 -16 0 -30 -5 -33 -13z"/>
<path d="M2180 2036 c0 -9 7 -16 16 -16 17 0 14 22 -4 28 -7 2 -12 -3 -12 -12z"/>
<path d="M2261 2026 c-18 -22 -6 -62 21 -69 12 -3 25 -4 30 -1 11 7 10 34 -2
34 -5 0 -10 -7 -10 -15 0 -9 -6 -12 -15 -9 -20 8 -19 53 0 60 8 4 23 0 32 -7
14 -12 16 -12 11 1 -6 21 -52 24 -67 6z"/>
<path d="M2347 1993 c-4 -21 -2 -42 3 -47 7 -7 10 -1 11 15 l0 24 11 -22 c16
-33 23 -28 24 17 1 22 -2 40 -6 40 -5 0 -15 2 -23 6 -10 4 -16 -5 -20 -33z
m33 7 c0 -5 -5 -10 -11 -10 -5 0 -7 5 -4 10 3 6 8 10 11 10 2 0 4 -4 4 -10z"/>
<path d="M2580 2010 c0 -5 6 -9 13 -7 7 1 13 -12 15 -35 2 -25 7 -35 16 -32 8
3 11 16 8 35 -3 20 0 34 9 40 10 6 2 9 -23 9 -21 0 -38 -4 -38 -10z"/>
<path d="M2446 2001 c-4 -6 -4 -16 0 -23 4 -6 3 -8 -4 -4 -11 7 -28 -31 -18
-41 3 -4 6 1 6 10 0 10 7 17 15 17 8 0 15 -7 15 -15 0 -8 7 -15 14 -15 12 0
13 6 4 33 -13 40 -24 52 -32 38z"/>
<path d="M2500 2006 c0 -2 16 -21 35 -42 l35 -39 -1 45 c-1 35 -3 40 -8 20
l-7 -25 -15 23 c-11 18 -39 31 -39 18z"/>
<path d="M2700 1995 c0 -8 7 -15 15 -15 8 0 15 7 15 15 0 8 -7 15 -15 15 -8 0
-15 -7 -15 -15z"/>
<path d="M2506 1945 c-3 -8 -1 -15 4 -15 6 0 10 7 10 15 0 8 -2 15 -4 15 -2 0
-6 -7 -10 -15z"/>
<path d="M3055 4130 c-10 -11 -44 -30 -77 -41 -64 -24 -76 -34 -25 -24 37 8
107 46 127 69 19 23 -4 19 -25 -4z"/>
<path d="M3077 4093 c-26 -14 -71 -31 -100 -38 -50 -12 -51 -13 -15 -14 41 -1
135 36 157 62 17 22 16 21 -42 -10z"/>
<path d="M2903 3983 c15 -2 39 -2 55 0 15 2 2 4 -28 4 -30 0 -43 -2 -27 -4z"/>
<path d="M3550 3760 c0 -5 -8 -10 -17 -11 -10 0 -13 -3 -6 -5 7 -3 10 -13 7
-22 -5 -14 -2 -13 10 2 15 19 22 46 11 46 -3 0 -5 -4 -5 -10z"/>
<path d="M3505 3733 c3 -3 -7 -15 -22 -25 -24 -15 -25 -18 -8 -18 34 0 54 27
33 44 -5 3 -6 3 -3 -1z"/>
<path d="M3590 3695 c0 -8 4 -15 10 -15 5 0 7 7 4 15 -4 8 -8 15 -10 15 -2 0
-4 -7 -4 -15z"/>
<path d="M3500 3668 c0 -9 5 -20 10 -23 13 -8 13 5 0 25 -8 13 -10 13 -10 -2z"/>
<path d="M3590 3660 c-9 -6 -10 -10 -3 -10 6 0 15 5 18 10 8 12 4 12 -15 0z"/>
<path d="M3570 3599 c-7 -11 -10 -23 -7 -25 2 -2 9 7 15 21 14 30 7 33 -8 4z"/>
<path d="M3496 3545 c-2 -7 -15 -16 -28 -18 -13 -2 -5 -3 16 0 l40 4 -20 -22
-19 -22 32 17 c17 9 35 22 39 28 5 9 3 9 -9 -1 -15 -11 -17 -11 -17 2 0 20
-27 30 -34 12z"/>
<path d="M3519 3483 c-13 -16 -12 -17 4 -4 16 13 21 21 13 21 -2 0 -10 -8 -17
-17z"/>
<path d="M3265 3230 c-10 -11 -14 -20 -9 -20 5 0 15 9 22 20 7 11 11 20 9 20
-2 0 -12 -9 -22 -20z"/>
<path d="M532 1459 c-111 -19 -221 -99 -269 -198 -25 -50 -28 -67 -28 -161 0
-93 3 -112 26 -161 74 -156 238 -238 425 -210 137 20 230 85 286 199 30 61 33
73 33 167 0 89 -3 107 -29 162 -49 108 -153 182 -283 203 -66 11 -88 11 -161
-1z m203 -47 c22 -11 52 -33 67 -49 79 -83 107 -279 61 -428 -28 -91 -80 -146
-157 -170 -64 -20 -111 -19 -177 2 -104 34 -163 128 -175 280 -15 198 59 351
187 384 53 13 150 4 194 -19z"/>
<path d="M2783 1453 c-56 -3 -73 -7 -73 -18 0 -11 11 -15 38 -15 21 0 47 -6
58 -14 18 -14 19 -29 19 -310 0 -332 2 -323 -74 -333 -22 -3 -41 -10 -41 -15
0 -6 98 -8 253 -6 l252 3 57 28 c114 56 178 170 178 316 0 108 -27 186 -88
253 -97 107 -207 128 -579 111z m368 -37 c63 -22 107 -64 141 -134 32 -65 33
-70 33 -197 0 -111 -3 -137 -21 -176 -47 -102 -122 -143 -261 -144 -114 0
-107 -21 -111 350 l-3 315 93 0 c51 -1 109 -7 129 -14z"/>
<path d="M1060 1441 c0 -4 19 -11 41 -14 71 -9 70 -7 75 -273 3 -132 10 -258
16 -281 12 -50 56 -94 123 -124 39 -18 69 -23 140 -23 134 -1 222 41 267 127
21 39 22 58 26 277 4 260 6 270 67 290 63 21 37 30 -85 30 -66 0 -120 -4 -120
-9 0 -5 19 -15 42 -23 67 -21 69 -31 66 -288 -3 -190 -6 -230 -20 -256 -71
-131 -306 -152 -385 -35 -12 18 -25 55 -28 84 -11 86 -2 475 11 487 6 7 30 14
53 17 90 12 32 23 -124 23 -91 0 -165 -4 -165 -9z"/>
<path d="M1900 1441 c0 -5 17 -11 39 -15 66 -10 66 -8 69 -315 3 -317 3 -318
-71 -339 -26 -7 -47 -17 -47 -23 0 -5 57 -9 135 -9 131 0 175 11 98 25 -81 14
-77 1 -83 321 -3 157 -3 287 -2 289 4 3 366 -472 456 -597 22 -32 46 -58 53
-58 9 0 13 80 15 331 3 371 -2 348 80 370 73 19 40 29 -97 29 -132 0 -175 -11
-95 -25 22 -4 50 -15 62 -25 23 -18 23 -23 26 -254 2 -130 0 -236 -5 -236 -4
0 -100 122 -212 270 l-204 270 -108 0 c-60 0 -109 -4 -109 -9z"/>
<path d="M3540 1440 c0 -5 10 -10 23 -10 85 -1 89 -16 85 -356 -3 -301 -3
-300 -69 -310 -100 -16 -14 -24 266 -24 l305 0 0 105 c0 87 -3 105 -15 105 -8
0 -15 -6 -15 -13 0 -8 -13 -40 -30 -73 -42 -85 -69 -99 -197 -99 -149 0 -138
-26 -138 331 l0 296 24 19 c14 11 39 19 62 19 21 0 39 5 39 10 0 6 -63 10
-170 10 -107 0 -170 -4 -170 -10z"/>
<path d="M4210 1441 c0 -5 12 -11 28 -14 59 -13 57 -2 60 -314 3 -329 2 -332
-66 -347 -23 -6 -42 -13 -42 -18 0 -4 135 -8 300 -8 l300 0 0 43 c0 23 3 72 7
110 5 56 3 67 -9 67 -10 0 -20 -17 -29 -47 -8 -31 -28 -63 -58 -94 -41 -42
-52 -48 -104 -54 -66 -8 -155 -1 -170 14 -15 15 -25 102 -26 219 l-1 102 74 0
c86 0 100 -9 110 -69 13 -83 26 -41 26 84 0 76 -4 125 -10 125 -5 0 -13 -18
-16 -40 -9 -56 -33 -70 -116 -70 l-69 0 3 148 3 147 95 0 c55 0 108 -6 126
-13 32 -13 66 -64 78 -115 4 -16 12 -27 19 -24 12 4 12 36 1 130 l-6 47 -254
0 c-140 0 -254 -4 -254 -9z"/>
<path d="M0 540 c0 -7 840 -10 2500 -10 1660 0 2500 3 2500 10 0 7 -840 10
-2500 10 -1660 0 -2500 -3 -2500 -10z"/>
<path d="M1888 376 c-40 -30 -43 -99 -7 -132 11 -10 48 -32 82 -48 58 -29 62
-34 65 -68 8 -93 -130 -88 -154 6 -10 43 -24 29 -24 -24 0 -46 13 -67 22 -38
3 8 11 7 28 -5 15 -10 43 -17 71 -17 62 0 99 35 99 92 0 48 -29 80 -97 109
-27 11 -56 28 -65 36 -23 21 -23 56 0 76 34 31 72 20 107 -32 l25 -36 0 44 c0
34 -3 41 -13 33 -8 -7 -18 -6 -31 4 -25 17 -85 18 -108 0z"/>
<path d="M2337 381 c-28 -6 -28 -6 -7 -23 18 -16 20 -29 20 -148 0 -107 -3
-132 -15 -136 -30 -12 -14 -24 30 -24 44 0 60 12 30 24 -11 4 -15 21 -15 63 0
72 19 103 61 103 36 0 49 -27 49 -107 0 -46 -3 -56 -20 -60 -33 -9 -11 -23 36
-23 43 0 59 12 29 24 -12 4 -15 23 -15 85 0 69 -3 82 -19 91 -28 15 -73 12
-99 -6 l-22 -15 0 80 c0 45 -3 80 -7 80 -5 -1 -21 -4 -36 -8z"/>
<path d="M3095 380 c-25 -6 -27 -8 -12 -14 15 -7 17 -25 17 -152 0 -121 -2
-144 -15 -144 -8 0 -15 -4 -15 -10 0 -5 23 -10 50 -10 48 0 66 12 35 24 -12 4
-15 32 -15 161 0 85 -3 154 -7 154 -5 -1 -21 -5 -38 -9z"/>
<path d="M2164 249 c-29 -15 -54 -61 -54 -102 0 -44 38 -92 80 -100 46 -10 99
16 100 47 0 6 -9 0 -20 -12 -55 -59 -133 11 -116 103 11 55 81 89 93 45 5 -19
43 -29 43 -12 0 34 -79 53 -126 31z"/>
<path d="M2622 235 c-88 -74 -11 -219 100 -186 52 16 81 61 74 116 -10 85
-109 125 -174 70z m102 2 c36 -26 39 -146 4 -168 -21 -14 -60 -10 -80 8 -27
24 -26 125 2 153 23 23 49 26 74 7z"/>
<path d="M2871 234 c-89 -75 -11 -218 101 -185 49 15 73 52 72 110 -1 37 -7
49 -33 73 -42 37 -97 38 -140 2z m109 -4 c15 -15 20 -33 20 -77 0 -64 -18 -93
-58 -93 -44 0 -62 26 -62 92 0 63 21 98 60 98 11 0 29 -9 40 -20z"/>
</g>
</svg>
